<svg width="256" height="159" viewBox="0 0 256 159" fill="none" xmlns="http://www.w3.org/2000/svg">
<g filter="url(#filter0_d_114_36)">
<g clip-path="url(#clip0_114_36)">
<rect x="11.8545" y="18" width="216.583" height="119.527" rx="1.91243" fill="#160C2D"/>
<rect x="110.095" y="-104.99" width="115.454" height="159.239" rx="0.717163" transform="rotate(39.3142 110.095 -104.99)" fill="url(#paint0_linear_114_36)"/>
<rect width="185.716" height="108.787" transform="translate(149.791 -57.4874) rotate(38.9848)" fill="url(#paint1_linear_114_36)"/>
<g clip-path="url(#clip1_114_36)">
<path d="M196.013 51.8412L196.013 50.4489C196.013 49.915 195.691 49.567 195.14 49.567C194.865 49.567 194.566 49.6598 194.359 49.9615C194.199 49.7062 193.969 49.567 193.625 49.567C193.395 49.567 193.166 49.6366 192.982 49.8919L192.982 49.6134L192.5 49.6134L192.5 51.8412L192.982 51.8412L192.982 50.6112C192.982 50.2168 193.189 50.0311 193.51 50.0311C193.831 50.0311 193.992 50.24 193.992 50.6112L193.992 51.8412L194.474 51.8412L194.474 50.6112C194.474 50.2168 194.704 50.0311 195.002 50.0311C195.324 50.0311 195.484 50.24 195.484 50.6112L195.484 51.8412L196.013 51.8412ZM203.153 49.6134L202.372 49.6134L202.372 48.9405L201.89 48.9405L201.89 49.6134L201.454 49.6134L201.454 50.0542L201.89 50.0542L201.89 51.0754C201.89 51.586 202.097 51.8876 202.648 51.8876C202.854 51.8876 203.084 51.8181 203.245 51.7252L203.107 51.3075C202.969 51.4003 202.809 51.4235 202.694 51.4235C202.464 51.4235 202.372 51.2843 202.372 51.0522L202.372 50.0542L203.153 50.0542L203.153 49.6134ZM207.24 49.5669C206.964 49.5669 206.78 49.7062 206.666 49.8919L206.666 49.6134L206.184 49.6134L206.184 51.8412L206.666 51.8412L206.666 50.5881C206.666 50.2168 206.826 50.0079 207.125 50.0079C207.217 50.0079 207.331 50.0312 207.423 50.0543L207.561 49.5903C207.469 49.567 207.331 49.567 207.24 49.567L207.24 49.5669ZM201.064 49.7991C200.834 49.6366 200.513 49.567 200.168 49.567C199.617 49.567 199.25 49.8455 199.25 50.2864C199.25 50.6578 199.525 50.8665 200.007 50.9362L200.237 50.9595C200.49 51.0058 200.627 51.0754 200.627 51.1915C200.627 51.3539 200.444 51.4699 200.122 51.4699C199.801 51.4699 199.548 51.3539 199.387 51.2379L199.158 51.6092C199.411 51.7948 199.755 51.8876 200.099 51.8876C200.742 51.8876 201.11 51.586 201.11 51.1682C201.11 50.7737 200.811 50.5648 200.352 50.4953L200.122 50.472C199.916 50.4488 199.755 50.4025 199.755 50.2632C199.755 50.1008 199.916 50.0079 200.168 50.0079C200.444 50.0079 200.719 50.1239 200.857 50.1936L201.064 49.7991ZM213.875 49.567C213.599 49.567 213.416 49.7062 213.301 49.8919L213.301 49.6134L212.819 49.6134L212.819 51.8412L213.301 51.8412L213.301 50.5881C213.301 50.2168 213.462 50.0079 213.76 50.0079C213.852 50.0079 213.967 50.0312 214.059 50.0543L214.196 49.5903C214.104 49.567 213.967 49.567 213.875 49.567ZM207.722 50.7273C207.722 51.4003 208.181 51.8876 208.893 51.8876C209.214 51.8876 209.444 51.8181 209.673 51.6324L209.444 51.2379C209.26 51.3771 209.076 51.4467 208.87 51.4467C208.479 51.4467 208.204 51.1682 208.204 50.7273C208.204 50.3096 208.479 50.0311 208.87 50.0079C209.076 50.0079 209.26 50.0775 209.444 50.2168L209.673 49.8223C209.444 49.6366 209.214 49.567 208.893 49.567C208.181 49.567 207.722 50.0543 207.722 50.7273ZM212.176 50.7273L212.176 49.6134L211.694 49.6134L211.694 49.8919C211.533 49.6831 211.303 49.567 211.005 49.567C210.385 49.567 209.903 50.0543 209.903 50.7273C209.903 51.4003 210.385 51.8876 211.005 51.8876C211.326 51.8876 211.556 51.7716 211.694 51.5628L211.694 51.8412L212.176 51.8412L212.176 50.7273ZM210.408 50.7273C210.408 50.3328 210.661 50.0079 211.074 50.0079C211.464 50.0079 211.74 50.3096 211.74 50.7273C211.74 51.1218 211.464 51.4467 211.074 51.4467C210.661 51.4234 210.408 51.1218 210.408 50.7273ZM204.645 49.567C204.002 49.567 203.543 50.0311 203.543 50.7273C203.543 51.4235 204.002 51.8876 204.668 51.8876C204.99 51.8876 205.311 51.7948 205.564 51.586L205.334 51.2379C205.15 51.3771 204.921 51.4699 204.691 51.4699C204.393 51.4699 204.094 51.3307 204.025 50.9361L205.655 50.9361L205.655 50.7506C205.678 50.0311 205.265 49.567 204.645 49.567ZM204.645 49.9847C204.944 49.9847 205.15 50.1704 205.196 50.5185L204.048 50.5185C204.094 50.2168 204.301 49.9847 204.645 49.9847ZM216.607 50.7273L216.607 48.7316L216.125 48.7316L216.125 49.8919C215.964 49.6831 215.735 49.567 215.436 49.567C214.816 49.567 214.334 50.0543 214.334 50.7273C214.334 51.4003 214.816 51.8876 215.436 51.8876C215.758 51.8876 215.987 51.7716 216.125 51.5628L216.125 51.8412L216.607 51.8412L216.607 50.7273ZM214.839 50.7273C214.839 50.3328 215.092 50.0079 215.505 50.0079C215.895 50.0079 216.171 50.3096 216.171 50.7273C216.171 51.1218 215.895 51.4467 215.505 51.4467C215.092 51.4234 214.839 51.1218 214.839 50.7273ZM198.722 50.7273L198.722 49.6134L198.24 49.6134L198.24 49.8919C198.079 49.6831 197.849 49.567 197.551 49.567C196.931 49.567 196.449 50.0543 196.449 50.7273C196.449 51.4003 196.931 51.8876 197.551 51.8876C197.872 51.8876 198.102 51.7716 198.24 51.5628L198.24 51.8412L198.722 51.8412L198.722 50.7273ZM196.931 50.7273C196.931 50.3328 197.183 50.0079 197.597 50.0079C197.987 50.0079 198.263 50.3096 198.263 50.7273C198.263 51.1218 197.987 51.4467 197.597 51.4467C197.183 51.4234 196.931 51.1218 196.931 50.7273Z" fill="white"/>
<path d="M200.903 32.6957L208.135 32.6957L208.135 45.8306L200.903 45.8306L200.903 32.6957Z" fill="#FF5F00"/>
<path d="M201.362 39.2633C201.362 36.5946 202.602 34.2275 204.508 32.6958C203.107 31.5819 201.339 30.9089 199.411 30.9089C194.842 30.9089 191.145 34.6451 191.145 39.2633C191.145 43.8813 194.842 47.6176 199.411 47.6176C201.339 47.6176 203.107 46.9447 204.508 45.8307C202.602 44.3223 201.362 41.932 201.362 39.2633Z" fill="#EB001B"/>
<path d="M217.893 39.2633C217.893 43.8813 214.196 47.6176 209.627 47.6176C207.699 47.6176 205.931 46.9447 204.531 45.8307C206.459 44.2991 207.676 41.932 207.676 39.2633C207.676 36.5946 206.436 34.2275 204.531 32.6958C205.931 31.5819 207.699 30.9089 209.627 30.9089C214.196 30.9089 217.893 34.6684 217.893 39.2633Z" fill="#F79E1B"/>
</g>
<path d="M23.3291 29.5592V45.7614C23.3291 46.0083 23.5293 46.2084 23.7762 46.2084H27.5089C27.7558 46.2084 27.956 46.0083 27.956 45.7614V39.8848C27.956 39.6844 28.1026 39.5049 28.2952 39.4493C42.2451 35.4255 31.5114 30.9855 23.8743 29.1262C23.5948 29.0581 23.3291 29.2715 23.3291 29.5592Z" fill="#703EDF"/>
<path d="M25.5498 32.5129C28.7122 33.291 33.5192 35.2978 27.4473 37.1007L25.5498 32.5129Z" fill="white"/>
<path d="M25.5284 79.5482V74.4133L24.3236 74.7671L24.1706 74.3942L25.7292 73.5814H26.1978V79.5482H25.5284ZM28.8082 79.0127C29.1525 78.6621 29.468 78.3434 29.7549 78.0565C30.0417 77.7697 30.2967 77.5051 30.5199 77.2629C30.7493 77.0142 30.9438 76.7816 31.1031 76.5648C31.2625 76.3417 31.3836 76.125 31.4665 75.9146C31.5494 75.6978 31.5908 75.4715 31.5908 75.2357C31.5908 75.0317 31.5653 74.8596 31.5143 74.7193C31.4633 74.5791 31.39 74.4675 31.2944 74.3846C31.2051 74.2954 31.0968 74.2317 30.9693 74.1934C30.8482 74.1552 30.7175 74.136 30.5772 74.136C30.4242 74.136 30.2776 74.1583 30.1374 74.203C29.9971 74.2476 29.8633 74.3145 29.7358 74.4038C29.6083 74.4866 29.4903 74.5982 29.382 74.7384C29.3246 74.8277 29.2895 74.8978 29.2768 74.9488C29.264 74.9934 29.2608 75.0412 29.2672 75.0922L29.229 75.1401L29.1525 75.0922L28.6648 74.7098C28.7923 74.4611 28.9517 74.2508 29.1429 74.0787C29.3341 73.9065 29.5509 73.7759 29.7931 73.6866C30.0354 73.5974 30.2935 73.5527 30.5677 73.5527C30.9055 73.5527 31.202 73.6229 31.4569 73.7631C31.7119 73.897 31.9127 74.0914 32.0594 74.3464C32.206 74.6014 32.2793 74.9042 32.2793 75.2548C32.2793 75.5162 32.2315 75.7712 32.1359 76.0198C32.0402 76.262 31.9096 76.5011 31.7438 76.7369C31.5781 76.9728 31.3836 77.2087 31.1605 77.4445C30.9374 77.6804 30.6983 77.9258 30.4434 78.1808C30.1947 78.4294 29.9366 78.6908 29.6688 78.9649H31.8872C31.9956 78.9649 32.0721 78.9586 32.1167 78.9458C32.1614 78.9331 32.2028 78.9076 32.241 78.8693H32.308V78.9649V79.5482H28.8082V79.0127ZM35.1862 79.6534C34.8738 79.6534 34.5742 79.596 34.2873 79.4813C34.0005 79.3665 33.7551 79.1976 33.5511 78.9745L33.9909 78.4486L34.0579 78.3721L34.1057 78.4199C34.112 78.4709 34.1248 78.5219 34.1439 78.5729C34.163 78.6175 34.2077 78.6781 34.2778 78.7546C34.3862 78.8502 34.5105 78.9299 34.6507 78.9936C34.791 79.051 34.9599 79.0797 35.1575 79.0797C35.4125 79.0797 35.6229 79.0287 35.7886 78.9267C35.9544 78.8247 36.0787 78.6844 36.1615 78.5059C36.2444 78.3211 36.2858 78.1139 36.2858 77.8844C36.2858 77.6549 36.2444 77.4605 36.1615 77.3011C36.085 77.1417 35.9735 77.0174 35.8269 76.9282C35.6802 76.8326 35.5049 76.7688 35.3009 76.7369C35.0969 76.6987 34.8675 76.6923 34.6125 76.7178V76.1823C34.9185 76.1823 35.1671 76.1505 35.3583 76.0867C35.5559 76.023 35.7057 75.9369 35.8077 75.8285C35.9161 75.7202 35.9894 75.5959 36.0277 75.4556C36.0659 75.309 36.085 75.1592 36.085 75.0062C36.085 74.8723 36.0627 74.7512 36.0181 74.6428C35.9799 74.5345 35.9225 74.442 35.846 74.3655C35.7759 74.289 35.6866 74.2317 35.5782 74.1934C35.4762 74.1488 35.3615 74.1265 35.234 74.1265C35.1065 74.1265 34.979 74.1424 34.8515 74.1743C34.7304 74.1998 34.6093 74.2444 34.4882 74.3081C34.3734 74.3719 34.2587 74.458 34.1439 74.5663L33.7423 74.1647C33.959 73.9416 34.1949 73.7854 34.4499 73.6962C34.7113 73.6005 34.9695 73.5527 35.2244 73.5527C35.5496 73.5527 35.8269 73.6165 36.0564 73.744C36.2858 73.8651 36.4611 74.0372 36.5823 74.2603C36.7098 74.4835 36.7735 74.7416 36.7735 75.0349C36.7735 75.2389 36.7385 75.4333 36.6683 75.6182C36.6046 75.7967 36.5026 75.9528 36.3623 76.0867C36.2221 76.2206 36.0468 76.3226 35.8364 76.3927C36.0595 76.4628 36.2572 76.568 36.4293 76.7083C36.6014 76.8421 36.7353 77.0079 36.8309 77.2055C36.9265 77.4031 36.9743 77.639 36.9743 77.9131C36.9743 78.2255 36.9042 78.5155 36.764 78.7832C36.6301 79.0446 36.4293 79.255 36.1615 79.4143C35.9002 79.5737 35.5751 79.6534 35.1862 79.6534ZM40.7131 79.5482V78.0852H38.1313V77.5975L40.8566 73.5814H41.4207V77.5306H42.1857V78.0948H41.4207V79.5482H40.7131ZM38.9059 77.521H40.7131V74.7863L38.9059 77.521ZM59.2924 79.6438C58.8972 79.6438 58.5593 79.5291 58.2788 79.2996C58.0047 79.0701 57.7944 78.745 57.6477 78.3243C57.5075 77.9035 57.4374 77.4063 57.4374 76.8326C57.4374 76.1186 57.5234 75.5162 57.6955 75.0253C57.874 74.5345 58.1195 74.1615 58.4318 73.9065C58.7506 73.6515 59.1203 73.524 59.541 73.524C59.7897 73.524 60.0223 73.5687 60.2391 73.6579C60.4622 73.7472 60.6662 73.8842 60.8511 74.0691L60.4303 74.5472L60.3634 74.6237L60.3156 74.5759C60.3092 74.5249 60.2933 74.4771 60.2678 74.4325C60.2486 74.3878 60.1976 74.3305 60.1148 74.2603C60.0638 74.2221 60.0096 74.1934 59.9522 74.1743C59.8948 74.1552 59.8343 74.1424 59.7705 74.136C59.7068 74.1233 59.6367 74.1169 59.5602 74.1169C59.4582 74.1169 59.3434 74.136 59.2159 74.1743C59.0884 74.2125 58.9609 74.2795 58.8334 74.3751C58.7059 74.4707 58.5848 74.6046 58.4701 74.7767C58.3617 74.9488 58.2725 75.1719 58.2023 75.446C58.1386 75.7138 58.1035 76.0389 58.0972 76.4214C58.1864 76.2684 58.298 76.1409 58.4318 76.0389C58.5657 75.9305 58.7123 75.8477 58.8717 75.7903C59.0311 75.7329 59.1936 75.7042 59.3594 75.7042C59.5825 75.7042 59.7928 75.752 59.9905 75.8477C60.1881 75.9369 60.3602 76.0676 60.5068 76.2397C60.6598 76.4118 60.7778 76.619 60.8606 76.8612C60.9499 77.0971 60.9945 77.3617 60.9945 77.6549C60.9945 78.0501 60.918 78.3976 60.765 78.6972C60.612 78.9968 60.408 79.2295 60.153 79.3952C59.898 79.561 59.6112 79.6438 59.2924 79.6438ZM59.3211 79.051C59.455 79.051 59.5825 79.0223 59.7036 78.9649C59.8311 78.9012 59.9427 78.8119 60.0383 78.6972C60.1339 78.5824 60.2072 78.439 60.2582 78.2669C60.3156 78.0948 60.3443 77.894 60.3443 77.6645C60.3443 77.4222 60.3124 77.215 60.2486 77.0429C60.1913 76.8708 60.1116 76.7306 60.0096 76.6222C59.9076 76.5074 59.7928 76.4246 59.6654 76.3736C59.5442 76.3162 59.4231 76.2875 59.302 76.2875C59.1872 76.2875 59.0725 76.3098 58.9578 76.3545C58.8494 76.3927 58.7442 76.4501 58.6422 76.5266C58.5402 76.5967 58.4446 76.6796 58.3553 76.7752C58.2725 76.8708 58.1992 76.976 58.1354 77.0907C58.1099 77.3075 58.1163 77.5306 58.1545 77.7601C58.1992 77.9896 58.2725 78.2031 58.3745 78.4008C58.4828 78.592 58.6167 78.7482 58.7761 78.8693C58.9354 78.9904 59.1171 79.051 59.3211 79.051ZM63.0599 79.5482C63.2448 78.9362 63.4328 78.337 63.6241 77.7505C63.8217 77.1577 64.0225 76.568 64.2265 75.9815C64.4369 75.395 64.6536 74.8086 64.8767 74.2221H62.3332V73.591H65.7086V73.9639C65.5301 74.4229 65.3548 74.8819 65.1827 75.3409C65.0106 75.7998 64.8449 76.262 64.6855 76.7274C64.5261 77.1927 64.3731 77.6613 64.2265 78.133C64.0863 78.5984 63.9492 79.0701 63.8153 79.5482H63.0599ZM68.7494 79.6438C68.3733 79.6438 68.0482 79.5737 67.7741 79.4335C67.5063 79.2869 67.2992 79.0924 67.1525 78.8502C67.0059 78.6079 66.9326 78.3402 66.9326 78.047C66.9326 77.8175 66.9804 77.5975 67.076 77.3872C67.178 77.1768 67.3183 76.9856 67.4968 76.8134C67.6753 76.6349 67.8856 76.4915 68.1279 76.3831C67.9494 76.2875 67.79 76.1696 67.6498 76.0293C67.5159 75.8827 67.4107 75.7202 67.3342 75.5417C67.2577 75.3632 67.2195 75.1783 67.2195 74.9871C67.2195 74.7129 67.2768 74.4675 67.3916 74.2508C67.5127 74.0277 67.688 73.8492 67.9175 73.7153C68.1534 73.5814 68.4466 73.5145 68.7972 73.5145C69.167 73.5145 69.4666 73.5782 69.6961 73.7057C69.9256 73.8332 70.0945 74.0053 70.2029 74.2221C70.3176 74.4325 70.375 74.6683 70.375 74.9297C70.375 75.0699 70.3527 75.2102 70.308 75.3504C70.2634 75.4907 70.1997 75.6245 70.1168 75.752C70.0339 75.8732 69.9351 75.9879 69.8204 76.0963C69.7056 76.1983 69.5749 76.2875 69.4283 76.364C69.6004 76.4405 69.7566 76.5393 69.8969 76.6604C70.0371 76.7752 70.1582 76.9059 70.2602 77.0525C70.3622 77.1927 70.4387 77.3457 70.4897 77.5115C70.5471 77.6708 70.5758 77.8366 70.5758 78.0087C70.5758 78.3211 70.4993 78.6016 70.3463 78.8502C70.1997 79.0924 69.9893 79.2869 69.7152 79.4335C69.4475 79.5737 69.1255 79.6438 68.7494 79.6438ZM68.7685 79.0414C69.0172 79.0414 69.2243 78.9968 69.3901 78.9076C69.5558 78.8119 69.6801 78.6876 69.763 78.5346C69.8523 78.3753 69.8969 78.2 69.8969 78.0087C69.8969 77.8621 69.865 77.7218 69.8013 77.588C69.7439 77.4477 69.6578 77.3202 69.5431 77.2055C69.4347 77.0844 69.3008 76.976 69.1415 76.8804C68.9885 76.7848 68.8163 76.7083 68.6251 76.6509C68.4849 76.7083 68.351 76.7848 68.2235 76.8804C68.1024 76.9696 67.9972 77.0748 67.9079 77.1959C67.8187 77.3107 67.7486 77.435 67.6976 77.5688C67.6466 77.6963 67.6211 77.8334 67.6211 77.98C67.6211 78.1713 67.6657 78.3466 67.7549 78.5059C67.8442 78.6653 67.9749 78.796 68.147 78.898C68.3191 78.9936 68.5263 79.0414 68.7685 79.0414ZM68.912 76.125C69.0267 76.0612 69.1319 75.9847 69.2275 75.8955C69.3295 75.8062 69.4156 75.7106 69.4857 75.6086C69.5622 75.5066 69.6196 75.4014 69.6578 75.2931C69.7024 75.1783 69.7248 75.0636 69.7248 74.9488C69.7248 74.7958 69.6897 74.6556 69.6196 74.5281C69.5494 74.3942 69.4443 74.2858 69.304 74.203C69.1638 74.1201 68.9885 74.0787 68.7781 74.0787C68.5677 74.0787 68.3956 74.1201 68.2617 74.203C68.1279 74.2795 68.0259 74.3815 67.9558 74.509C67.892 74.6364 67.8601 74.7735 67.8601 74.9201C67.8601 75.0667 67.8856 75.1974 67.9366 75.3122C67.994 75.4269 68.0705 75.5321 68.1661 75.6277C68.2617 75.717 68.3733 75.803 68.5008 75.8859C68.6283 75.9688 68.7654 76.0485 68.912 76.125ZM73.3201 79.6438C73.0269 79.6438 72.7623 79.5992 72.5265 79.51C72.2906 79.4143 72.0802 79.2773 71.8954 79.0988L72.3065 78.6302L72.3735 78.5538L72.4213 78.6016C72.4277 78.6526 72.4436 78.7004 72.4691 78.745C72.4946 78.7832 72.5456 78.8374 72.6221 78.9076C72.7113 78.9649 72.807 79.0064 72.909 79.0319C73.011 79.0574 73.1289 79.0701 73.2628 79.0701C73.5178 79.0701 73.7345 78.9968 73.913 78.8502C74.0979 78.7036 74.2477 78.5059 74.3624 78.2573C74.4772 78.0087 74.56 77.7314 74.611 77.4254C74.6684 77.1194 74.6971 76.8071 74.6971 76.4883C74.6971 75.9592 74.6556 75.5225 74.5728 75.1783C74.4899 74.8277 74.3624 74.5663 74.1903 74.3942C74.0182 74.2221 73.7982 74.136 73.5305 74.136C73.3711 74.136 73.2245 74.1679 73.0906 74.2317C72.9568 74.289 72.8388 74.3783 72.7368 74.4994C72.6412 74.6141 72.5679 74.7544 72.5169 74.9201C72.4659 75.0859 72.4404 75.2739 72.4404 75.4843C72.4404 75.6755 72.4691 75.8477 72.5265 76.0007C72.5838 76.1473 72.6635 76.2748 72.7655 76.3831C72.8675 76.4851 72.9823 76.5648 73.1098 76.6222C73.2436 76.6796 73.3839 76.7083 73.5305 76.7083C73.7536 76.7083 73.9417 76.6828 74.0947 76.6318C74.254 76.5808 74.3975 76.4979 74.525 76.3831C74.6525 76.2684 74.7736 76.1186 74.8883 75.9337L74.9361 76.6126C74.815 76.7465 74.6875 76.8644 74.5537 76.9664C74.4198 77.0684 74.2668 77.1481 74.0947 77.2055C73.9289 77.2629 73.7377 77.2915 73.5209 77.2915C73.2723 77.2915 73.0428 77.2501 72.8325 77.1672C72.6221 77.078 72.4372 76.9537 72.2779 76.7943C72.1249 76.6349 72.0037 76.4469 71.9145 76.2301C71.8316 76.007 71.7902 75.7616 71.7902 75.4939C71.7902 75.2134 71.8348 74.9552 71.9241 74.7193C72.0133 74.4835 72.1344 74.2795 72.2874 74.1073C72.4468 73.9288 72.6285 73.7918 72.8325 73.6962C73.0428 73.6005 73.2659 73.5527 73.5018 73.5527C73.8779 73.5527 74.203 73.6611 74.4772 73.8778C74.7513 74.0946 74.9616 74.3942 75.1083 74.7767C75.2613 75.1528 75.3378 75.5863 75.3378 76.0771C75.3378 76.8804 75.2549 77.5433 75.0891 78.0661C74.9298 78.5888 74.7003 78.9809 74.4007 79.2422C74.101 79.4972 73.7409 79.6311 73.3201 79.6438ZM92.4636 79.5482V74.4133L91.2588 74.7671L91.1058 74.3942L92.6644 73.5814H93.1329V79.5482H92.4636ZM95.7434 79.0127C96.0877 78.6621 96.4032 78.3434 96.6901 78.0565C96.9769 77.7697 97.2319 77.5051 97.4551 77.2629C97.6845 77.0142 97.879 76.7816 98.0383 76.5648C98.1977 76.3417 98.3188 76.125 98.4017 75.9146C98.4846 75.6978 98.526 75.4715 98.526 75.2357C98.526 75.0317 98.5005 74.8596 98.4495 74.7193C98.3985 74.5791 98.3252 74.4675 98.2296 74.3846C98.1403 74.2954 98.032 74.2317 97.9045 74.1934C97.7834 74.1552 97.6527 74.136 97.5124 74.136C97.3594 74.136 97.2128 74.1583 97.0726 74.203C96.9323 74.2476 96.7985 74.3145 96.671 74.4038C96.5435 74.4866 96.4255 74.5982 96.3172 74.7384C96.2598 74.8277 96.2247 74.8978 96.212 74.9488C96.1992 74.9934 96.196 75.0412 96.2024 75.0922L96.1642 75.1401L96.0877 75.0922L95.6 74.7098C95.7275 74.4611 95.8869 74.2508 96.0781 74.0787C96.2693 73.9065 96.4861 73.7759 96.7283 73.6866C96.9706 73.5974 97.2287 73.5527 97.5029 73.5527C97.8407 73.5527 98.1372 73.6229 98.3921 73.7631C98.6471 73.897 98.8479 74.0914 98.9946 74.3464C99.1412 74.6014 99.2145 74.9042 99.2145 75.2548C99.2145 75.5162 99.1667 75.7712 99.0711 76.0198C98.9754 76.262 98.8448 76.5011 98.679 76.7369C98.5133 76.9728 98.3188 77.2087 98.0957 77.4445C97.8726 77.6804 97.6335 77.9258 97.3786 78.1808C97.1299 78.4294 96.8718 78.6908 96.604 78.9649H98.8224C98.9308 78.9649 99.0073 78.9586 99.0519 78.9458C99.0966 78.9331 99.138 78.9076 99.1762 78.8693H99.2432V78.9649V79.5482H95.7434V79.0127ZM102.121 79.6534C101.809 79.6534 101.509 79.596 101.223 79.4813C100.936 79.3665 100.69 79.1976 100.486 78.9745L100.926 78.4486L100.993 78.3721L101.041 78.4199C101.047 78.4709 101.06 78.5219 101.079 78.5729C101.098 78.6175 101.143 78.6781 101.213 78.7546C101.321 78.8502 101.446 78.9299 101.586 78.9936C101.726 79.051 101.895 79.0797 102.093 79.0797C102.348 79.0797 102.558 79.0287 102.724 78.9267C102.89 78.8247 103.014 78.6844 103.097 78.5059C103.18 78.3211 103.221 78.1139 103.221 77.8844C103.221 77.6549 103.18 77.4605 103.097 77.3011C103.02 77.1417 102.909 77.0174 102.762 76.9282C102.615 76.8326 102.44 76.7688 102.236 76.7369C102.032 76.6987 101.803 76.6923 101.548 76.7178V76.1823C101.854 76.1823 102.102 76.1505 102.294 76.0867C102.491 76.023 102.641 75.9369 102.743 75.8285C102.851 75.7202 102.925 75.5959 102.963 75.4556C103.001 75.309 103.02 75.1592 103.02 75.0062C103.02 74.8723 102.998 74.7512 102.953 74.6428C102.915 74.5345 102.858 74.442 102.781 74.3655C102.711 74.289 102.622 74.2317 102.513 74.1934C102.411 74.1488 102.297 74.1265 102.169 74.1265C102.042 74.1265 101.914 74.1424 101.787 74.1743C101.666 74.1998 101.544 74.2444 101.423 74.3081C101.309 74.3719 101.194 74.458 101.079 74.5663L100.678 74.1647C100.894 73.9416 101.13 73.7854 101.385 73.6962C101.646 73.6005 101.905 73.5527 102.16 73.5527C102.485 73.5527 102.762 73.6165 102.992 73.744C103.221 73.8651 103.396 74.0372 103.517 74.2603C103.645 74.4835 103.709 74.7416 103.709 75.0349C103.709 75.2389 103.674 75.4333 103.604 75.6182C103.54 75.7967 103.438 75.9528 103.298 76.0867C103.157 76.2206 102.982 76.3226 102.772 76.3927C102.995 76.4628 103.192 76.568 103.364 76.7083C103.537 76.8421 103.67 77.0079 103.766 77.2055C103.862 77.4031 103.91 77.639 103.91 77.9131C103.91 78.2255 103.839 78.5155 103.699 78.7832C103.565 79.0446 103.364 79.255 103.097 79.4143C102.835 79.5737 102.51 79.6534 102.121 79.6534ZM107.648 79.5482V78.0852H105.067V77.5975L107.792 73.5814H108.356V77.5306H109.121V78.0948H108.356V79.5482H107.648ZM105.841 77.521H107.648V74.7863L105.841 77.521ZM121.332 79.6534C120.968 79.6534 120.631 79.5737 120.318 79.4143C120.012 79.255 119.76 79.0287 119.563 78.7354L120.098 78.3338L120.175 78.2764L120.213 78.3243C120.207 78.3753 120.213 78.4231 120.232 78.4677C120.258 78.5123 120.302 78.5761 120.366 78.6589C120.494 78.7992 120.634 78.9044 120.787 78.9745C120.946 79.0382 121.141 79.0701 121.37 79.0701C121.523 79.0701 121.67 79.0382 121.81 78.9745C121.95 78.9044 122.071 78.8087 122.173 78.6876C122.282 78.5665 122.368 78.4167 122.431 78.2382C122.495 78.0597 122.527 77.8621 122.527 77.6453C122.527 77.4222 122.495 77.2246 122.431 77.0525C122.368 76.874 122.278 76.7242 122.164 76.6031C122.055 76.4819 121.928 76.3895 121.781 76.3258C121.635 76.262 121.475 76.2301 121.303 76.2301C121.169 76.2301 121.032 76.2525 120.892 76.2971C120.758 76.3417 120.631 76.4055 120.509 76.4883C120.395 76.5712 120.286 76.6732 120.184 76.7943L119.764 76.6222L119.964 73.591H122.986V74.1934H120.529L120.433 75.905C120.541 75.854 120.647 75.8126 120.749 75.7807C120.857 75.7425 120.965 75.717 121.074 75.7042C121.188 75.6851 121.3 75.6755 121.408 75.6755C121.67 75.6755 121.909 75.7233 122.125 75.819C122.342 75.9082 122.53 76.0421 122.69 76.2206C122.855 76.3927 122.983 76.6031 123.072 76.8517C123.161 77.0939 123.206 77.368 123.206 77.674C123.206 78.082 123.123 78.4358 122.957 78.7354C122.792 79.0287 122.569 79.255 122.288 79.4143C122.008 79.5737 121.689 79.6534 121.332 79.6534ZM126.228 79.6438C125.832 79.6438 125.495 79.5291 125.214 79.2996C124.94 79.0701 124.73 78.745 124.583 78.3243C124.443 77.9035 124.373 77.4063 124.373 76.8326C124.373 76.1186 124.459 75.5162 124.631 75.0253C124.809 74.5345 125.055 74.1615 125.367 73.9065C125.686 73.6515 126.056 73.524 126.476 73.524C126.725 73.524 126.958 73.5687 127.174 73.6579C127.397 73.7472 127.601 73.8842 127.786 74.0691L127.366 74.5472L127.299 74.6237L127.251 74.5759C127.244 74.5249 127.228 74.4771 127.203 74.4325C127.184 74.3878 127.133 74.3305 127.05 74.2603C126.999 74.2221 126.945 74.1934 126.887 74.1743C126.83 74.1552 126.769 74.1424 126.706 74.136C126.642 74.1233 126.572 74.1169 126.495 74.1169C126.393 74.1169 126.279 74.136 126.151 74.1743C126.024 74.2125 125.896 74.2795 125.769 74.3751C125.641 74.4707 125.52 74.6046 125.405 74.7767C125.297 74.9488 125.208 75.1719 125.138 75.446C125.074 75.7138 125.039 76.0389 125.032 76.4214C125.122 76.2684 125.233 76.1409 125.367 76.0389C125.501 75.9305 125.648 75.8477 125.807 75.7903C125.966 75.7329 126.129 75.7042 126.295 75.7042C126.518 75.7042 126.728 75.752 126.926 75.8477C127.123 75.9369 127.295 76.0676 127.442 76.2397C127.595 76.4118 127.713 76.619 127.796 76.8612C127.885 77.0971 127.93 77.3617 127.93 77.6549C127.93 78.0501 127.853 78.3976 127.7 78.6972C127.547 78.9968 127.343 79.2295 127.088 79.3952C126.833 79.561 126.546 79.6438 126.228 79.6438ZM126.256 79.051C126.39 79.051 126.518 79.0223 126.639 78.9649C126.766 78.9012 126.878 78.8119 126.973 78.6972C127.069 78.5824 127.142 78.439 127.193 78.2669C127.251 78.0948 127.279 77.894 127.279 77.6645C127.279 77.4222 127.248 77.215 127.184 77.0429C127.126 76.8708 127.047 76.7306 126.945 76.6222C126.843 76.5074 126.728 76.4246 126.601 76.3736C126.479 76.3162 126.358 76.2875 126.237 76.2875C126.122 76.2875 126.008 76.3098 125.893 76.3545C125.785 76.3927 125.679 76.4501 125.577 76.5266C125.475 76.5967 125.38 76.6796 125.291 76.7752C125.208 76.8708 125.134 76.976 125.071 77.0907C125.045 77.3075 125.051 77.5306 125.09 77.7601C125.134 77.9896 125.208 78.2031 125.31 78.4008C125.418 78.592 125.552 78.7482 125.711 78.8693C125.871 78.9904 126.052 79.051 126.256 79.051ZM129.995 79.5482C130.18 78.9362 130.368 78.337 130.559 77.7505C130.757 77.1577 130.958 76.568 131.162 75.9815C131.372 75.395 131.589 74.8086 131.812 74.2221H129.268V73.591H132.644V73.9639C132.465 74.4229 132.29 74.8819 132.118 75.3409C131.946 75.7998 131.78 76.262 131.621 76.7274C131.461 77.1927 131.308 77.6613 131.162 78.133C131.021 78.5984 130.884 79.0701 130.751 79.5482H129.995ZM135.685 79.6438C135.308 79.6438 134.983 79.5737 134.709 79.4335C134.442 79.2869 134.234 79.0924 134.088 78.8502C133.941 78.6079 133.868 78.3402 133.868 78.047C133.868 77.8175 133.916 77.5975 134.011 77.3872C134.113 77.1768 134.253 76.9856 134.432 76.8134C134.61 76.6349 134.821 76.4915 135.063 76.3831C134.885 76.2875 134.725 76.1696 134.585 76.0293C134.451 75.8827 134.346 75.7202 134.269 75.5417C134.193 75.3632 134.155 75.1783 134.155 74.9871C134.155 74.7129 134.212 74.4675 134.327 74.2508C134.448 74.0277 134.623 73.8492 134.853 73.7153C135.089 73.5814 135.382 73.5145 135.732 73.5145C136.102 73.5145 136.402 73.5782 136.631 73.7057C136.861 73.8332 137.03 74.0053 137.138 74.2221C137.253 74.4325 137.31 74.6683 137.31 74.9297C137.31 75.0699 137.288 75.2102 137.243 75.3504C137.199 75.4907 137.135 75.6245 137.052 75.752C136.969 75.8732 136.87 75.9879 136.756 76.0963C136.641 76.1983 136.51 76.2875 136.364 76.364C136.536 76.4405 136.692 76.5393 136.832 76.6604C136.972 76.7752 137.093 76.9059 137.195 77.0525C137.297 77.1927 137.374 77.3457 137.425 77.5115C137.482 77.6708 137.511 77.8366 137.511 78.0087C137.511 78.3211 137.434 78.6016 137.281 78.8502C137.135 79.0924 136.925 79.2869 136.65 79.4335C136.383 79.5737 136.061 79.6438 135.685 79.6438ZM135.704 79.0414C135.952 79.0414 136.16 78.9968 136.325 78.9076C136.491 78.8119 136.615 78.6876 136.698 78.5346C136.787 78.3753 136.832 78.2 136.832 78.0087C136.832 77.8621 136.8 77.7218 136.736 77.588C136.679 77.4477 136.593 77.3202 136.478 77.2055C136.37 77.0844 136.236 76.976 136.077 76.8804C135.924 76.7848 135.752 76.7083 135.56 76.6509C135.42 76.7083 135.286 76.7848 135.159 76.8804C135.038 76.9696 134.932 77.0748 134.843 77.1959C134.754 77.3107 134.684 77.435 134.633 77.5688C134.582 77.6963 134.556 77.8334 134.556 77.98C134.556 78.1713 134.601 78.3466 134.69 78.5059C134.779 78.6653 134.91 78.796 135.082 78.898C135.254 78.9936 135.461 79.0414 135.704 79.0414ZM135.847 76.125C135.962 76.0612 136.067 75.9847 136.163 75.8955C136.265 75.8062 136.351 75.7106 136.421 75.6086C136.497 75.5066 136.555 75.4014 136.593 75.2931C136.638 75.1783 136.66 75.0636 136.66 74.9488C136.66 74.7958 136.625 74.6556 136.555 74.5281C136.485 74.3942 136.379 74.2858 136.239 74.203C136.099 74.1201 135.924 74.0787 135.713 74.0787C135.503 74.0787 135.331 74.1201 135.197 74.203C135.063 74.2795 134.961 74.3815 134.891 74.509C134.827 74.6364 134.795 74.7735 134.795 74.9201C134.795 75.0667 134.821 75.1974 134.872 75.3122C134.929 75.4269 135.006 75.5321 135.101 75.6277C135.197 75.717 135.308 75.803 135.436 75.8859C135.563 75.9688 135.701 76.0485 135.847 76.125Z" fill="white"/>
<path d="M25.4309 121.645C25.1765 121.645 24.94 121.611 24.7214 121.544C24.5072 121.478 24.3108 121.377 24.1323 121.243C23.9583 121.105 23.8021 120.935 23.6638 120.735L24.1591 120.166C24.3778 120.478 24.5875 120.694 24.7883 120.815C24.9891 120.935 25.2278 120.996 25.5045 120.996C25.6741 120.996 25.828 120.969 25.9663 120.915C26.1047 120.862 26.214 120.788 26.2943 120.694C26.3747 120.601 26.4148 120.494 26.4148 120.373C26.4148 120.293 26.4014 120.217 26.3747 120.146C26.3479 120.074 26.3055 120.009 26.2475 119.951C26.1939 119.893 26.1225 119.84 26.0333 119.791C25.9485 119.742 25.8481 119.699 25.7321 119.664C25.6161 119.623 25.4822 119.59 25.3305 119.563C25.0895 119.514 24.8798 119.449 24.7013 119.369C24.5228 119.289 24.3733 119.188 24.2528 119.068C24.1323 118.947 24.0431 118.811 23.9851 118.66C23.9271 118.503 23.8981 118.329 23.8981 118.137C23.8981 117.95 23.9382 117.776 24.0185 117.615C24.1033 117.455 24.2171 117.316 24.3599 117.2C24.5072 117.08 24.679 116.988 24.8753 116.926C25.0716 116.859 25.2836 116.826 25.5112 116.826C25.7522 116.826 25.973 116.857 26.1738 116.919C26.3747 116.982 26.5531 117.075 26.7093 117.2C26.8655 117.321 26.9949 117.47 27.0976 117.649L26.5888 118.151C26.4996 118.004 26.3992 117.881 26.2876 117.783C26.1761 117.68 26.0534 117.604 25.9195 117.555C25.7856 117.502 25.6428 117.475 25.4911 117.475C25.3171 117.475 25.1654 117.502 25.0359 117.555C24.9065 117.609 24.8039 117.685 24.728 117.783C24.6566 117.876 24.621 117.988 24.621 118.117C24.621 118.211 24.6388 118.298 24.6745 118.378C24.7102 118.454 24.7637 118.523 24.8351 118.586C24.911 118.644 25.0114 118.697 25.1364 118.747C25.2613 118.791 25.4108 118.831 25.5848 118.867C25.8302 118.921 26.0489 118.99 26.2408 119.075C26.4327 119.155 26.5955 119.251 26.7294 119.362C26.8633 119.474 26.9637 119.599 27.0306 119.737C27.102 119.876 27.1377 120.025 27.1377 120.186C27.1377 120.485 27.0685 120.743 26.9302 120.962C26.7919 121.181 26.5955 121.35 26.3412 121.471C26.0868 121.587 25.7834 121.645 25.4309 121.645ZM27.9879 121.578V116.625H28.6774V118.787L28.5569 118.867C28.6015 118.711 28.6885 118.568 28.8179 118.439C28.9474 118.305 29.1013 118.198 29.2798 118.117C29.4583 118.033 29.6412 117.99 29.8287 117.99C30.0964 117.99 30.3195 118.044 30.498 118.151C30.6765 118.253 30.8104 118.412 30.8996 118.626C30.9889 118.84 31.0335 119.11 31.0335 119.436V121.578H30.3441V119.483C30.3441 119.282 30.3173 119.117 30.2637 118.988C30.2102 118.854 30.1276 118.758 30.0161 118.7C29.9045 118.637 29.7662 118.61 29.6011 118.619C29.4672 118.619 29.3445 118.642 29.2329 118.686C29.1214 118.727 29.0232 118.785 28.9384 118.86C28.8581 118.936 28.7934 119.025 28.7443 119.128C28.6997 119.226 28.6774 119.333 28.6774 119.449V121.578H28.336C28.278 121.578 28.22 121.578 28.162 121.578C28.104 121.578 28.046 121.578 27.9879 121.578ZM33.5484 121.645C33.2048 121.645 32.8969 121.567 32.6247 121.411C32.357 121.25 32.145 121.034 31.9888 120.761C31.8327 120.485 31.7546 120.17 31.7546 119.818C31.7546 119.465 31.8327 119.153 31.9888 118.88C32.145 118.604 32.357 118.387 32.6247 118.231C32.8969 118.071 33.2048 117.99 33.5484 117.99C33.8876 117.99 34.191 118.071 34.4588 118.231C34.731 118.387 34.9451 118.604 35.1013 118.88C35.2575 119.153 35.3356 119.465 35.3356 119.818C35.3356 120.17 35.2575 120.485 35.1013 120.761C34.9451 121.034 34.731 121.25 34.4588 121.411C34.191 121.567 33.8876 121.645 33.5484 121.645ZM33.5484 121.016C33.7582 121.016 33.9456 120.964 34.1107 120.862C34.2758 120.755 34.4052 120.612 34.4989 120.433C34.5926 120.25 34.6372 120.045 34.6328 119.818C34.6372 119.586 34.5926 119.38 34.4989 119.202C34.4052 119.019 34.2758 118.876 34.1107 118.773C33.9456 118.671 33.7582 118.619 33.5484 118.619C33.3387 118.619 33.1491 118.673 32.9795 118.78C32.8144 118.883 32.685 119.025 32.5913 119.208C32.4976 119.387 32.4529 119.59 32.4574 119.818C32.4529 120.045 32.4976 120.25 32.5913 120.433C32.685 120.612 32.8144 120.755 32.9795 120.862C33.1491 120.964 33.3387 121.016 33.5484 121.016ZM36.0735 121.578V118.064H36.7696V118.814L36.6424 118.894C36.6781 118.778 36.7339 118.666 36.8097 118.559C36.8901 118.452 36.986 118.358 37.0976 118.278C37.2136 118.193 37.3363 118.126 37.4657 118.077C37.5996 118.028 37.7357 118.004 37.874 118.004C38.0748 118.004 38.2511 118.037 38.4028 118.104C38.5545 118.171 38.6795 118.271 38.7776 118.405C38.8758 118.539 38.9472 118.706 38.9918 118.907L38.8847 118.88L38.9316 118.767C38.9807 118.664 39.0476 118.568 39.1324 118.479C39.2216 118.385 39.322 118.303 39.4336 118.231C39.5452 118.16 39.6634 118.104 39.7884 118.064C39.9133 118.024 40.036 118.004 40.1565 118.004C40.4198 118.004 40.6362 118.057 40.8058 118.164C40.9798 118.271 41.1092 118.434 41.194 118.653C41.2832 118.872 41.3279 119.144 41.3279 119.469V121.578H40.6317V119.51C40.6317 119.309 40.605 119.146 40.5514 119.021C40.5023 118.892 40.4265 118.796 40.3238 118.733C40.2212 118.671 40.0896 118.639 39.9289 118.639C39.804 118.639 39.6857 118.662 39.5742 118.706C39.4671 118.747 39.3734 118.805 39.293 118.88C39.2127 118.956 39.1502 119.046 39.1056 119.148C39.061 119.246 39.0387 119.356 39.0387 119.476V121.578H38.3426V119.496C38.3426 119.313 38.3158 119.159 38.2622 119.034C38.2087 118.905 38.1306 118.807 38.028 118.74C37.9253 118.673 37.8004 118.639 37.6531 118.639C37.5282 118.639 37.4122 118.662 37.3051 118.706C37.198 118.747 37.1043 118.805 37.0239 118.88C36.9436 118.952 36.8811 119.039 36.8365 119.142C36.7919 119.24 36.7696 119.347 36.7696 119.463V121.578H36.0735ZM43.603 121.645C43.3129 121.645 43.0474 121.565 42.8065 121.404C42.57 121.243 42.3803 121.025 42.2375 120.748C42.0947 120.471 42.0233 120.159 42.0233 119.811C42.0233 119.458 42.0947 119.146 42.2375 118.874C42.3848 118.597 42.5811 118.381 42.8265 118.224C43.0764 118.068 43.3553 117.99 43.6632 117.99C43.8462 117.99 44.0135 118.017 44.1652 118.071C44.317 118.124 44.4486 118.2 44.5602 118.298C44.6762 118.392 44.7699 118.501 44.8413 118.626C44.9171 118.751 44.964 118.885 44.9819 119.028L44.8279 118.974V118.064H45.524V121.578H44.8279V120.741L44.9885 120.694C44.9618 120.815 44.906 120.933 44.8212 121.049C44.7409 121.161 44.636 121.261 44.5066 121.35C44.3817 121.44 44.2411 121.511 44.0849 121.565C43.9332 121.618 43.7726 121.645 43.603 121.645ZM43.7837 121.009C43.9934 121.009 44.1786 120.958 44.3393 120.855C44.4999 120.752 44.6249 120.612 44.7141 120.433C44.8078 120.25 44.8547 120.043 44.8547 119.811C44.8547 119.583 44.8078 119.38 44.7141 119.202C44.6249 119.023 44.4999 118.883 44.3393 118.78C44.1786 118.677 43.9934 118.626 43.7837 118.626C43.5784 118.626 43.3955 118.677 43.2348 118.78C43.0787 118.883 42.9537 119.023 42.86 119.202C42.7708 119.38 42.7261 119.583 42.7261 119.811C42.7261 120.043 42.7708 120.25 42.86 120.433C42.9537 120.612 43.0787 120.752 43.2348 120.855C43.3955 120.958 43.5784 121.009 43.7837 121.009ZM47.9525 121.645C47.6312 121.645 47.3434 121.567 47.0891 121.411C46.8392 121.25 46.6406 121.034 46.4933 120.761C46.3461 120.485 46.2724 120.17 46.2724 119.818C46.2724 119.465 46.3438 119.153 46.4866 118.88C46.6339 118.604 46.8325 118.387 47.0824 118.231C47.3323 118.071 47.6156 117.99 47.9324 117.99C48.1065 117.99 48.2738 118.019 48.4345 118.077C48.5996 118.131 48.7468 118.207 48.8762 118.305C49.0056 118.399 49.106 118.503 49.1774 118.619C49.2533 118.731 49.2912 118.845 49.2912 118.961L49.0904 118.974V116.625H49.7799V121.578H49.0904V120.741H49.2243C49.2243 120.848 49.1886 120.955 49.1172 121.063C49.0458 121.165 48.9499 121.261 48.8294 121.35C48.7134 121.44 48.5773 121.511 48.4211 121.565C48.2693 121.618 48.1132 121.645 47.9525 121.645ZM48.0462 121.049C48.256 121.049 48.4411 120.996 48.6018 120.889C48.7624 120.781 48.8874 120.636 48.9766 120.453C49.0703 120.266 49.1172 120.054 49.1172 119.818C49.1172 119.581 49.0703 119.371 48.9766 119.188C48.8874 119.001 48.7624 118.854 48.6018 118.747C48.4411 118.639 48.256 118.586 48.0462 118.586C47.8365 118.586 47.6513 118.639 47.4907 118.747C47.33 118.854 47.2028 119.001 47.1091 119.188C47.0199 119.371 46.9753 119.581 46.9753 119.818C46.9753 120.054 47.0199 120.266 47.1091 120.453C47.2028 120.636 47.33 120.781 47.4907 120.889C47.6513 120.996 47.8365 121.049 48.0462 121.049ZM52.3688 121.645C52.0074 121.645 51.6861 121.569 51.405 121.417C51.1283 121.261 50.9096 121.049 50.749 120.781C50.5928 120.514 50.5147 120.206 50.5147 119.858C50.5147 119.581 50.5594 119.329 50.6486 119.101C50.7378 118.874 50.8606 118.677 51.0167 118.512C51.1774 118.343 51.367 118.213 51.5857 118.124C51.8088 118.03 52.0498 117.984 52.3086 117.984C52.5362 117.984 52.7481 118.028 52.9445 118.117C53.1408 118.202 53.3104 118.32 53.4532 118.472C53.6004 118.624 53.712 118.805 53.7879 119.014C53.8682 119.22 53.9061 119.445 53.9016 119.69L53.895 119.985H51.0234L50.8695 119.436H53.2992L53.1988 119.55V119.389C53.1854 119.242 53.1364 119.11 53.0516 118.994C52.9668 118.878 52.8597 118.787 52.7303 118.72C52.6009 118.653 52.4603 118.619 52.3086 118.619C52.0676 118.619 51.8646 118.666 51.6995 118.76C51.5344 118.849 51.4094 118.983 51.3246 119.162C51.2399 119.336 51.1975 119.552 51.1975 119.811C51.1975 120.056 51.2488 120.27 51.3514 120.453C51.4541 120.632 51.5991 120.77 51.7865 120.868C51.9739 120.967 52.1903 121.016 52.4358 121.016C52.6098 121.016 52.7704 120.987 52.9177 120.929C53.0694 120.871 53.2323 120.766 53.4063 120.614L53.7544 121.103C53.6473 121.21 53.5157 121.304 53.3595 121.384C53.2078 121.464 53.0449 121.529 52.8708 121.578C52.7013 121.623 52.5339 121.645 52.3688 121.645ZM56.2123 121.578L58.0263 116.892H58.7626L60.5631 121.578H59.7934L58.7224 118.753C58.709 118.722 58.6822 118.646 58.6421 118.526C58.6064 118.405 58.564 118.271 58.5149 118.124C58.4658 117.977 58.4212 117.843 58.381 117.722C58.3409 117.598 58.3141 117.517 58.3007 117.482L58.4547 117.475C58.4279 117.551 58.3944 117.647 58.3543 117.763C58.3186 117.879 58.2784 118.001 58.2338 118.131C58.1936 118.26 58.1534 118.383 58.1133 118.499C58.0731 118.61 58.0397 118.704 58.0129 118.78L56.9486 121.578H56.2123ZM57.0155 120.413L57.2833 119.717H59.4118L59.7197 120.413H57.0155ZM61.4948 121.652C61.3476 121.652 61.2338 121.609 61.1534 121.524C61.0731 121.435 61.033 121.31 61.033 121.15C61.033 121.002 61.0754 120.882 61.1601 120.788C61.2449 120.694 61.3565 120.648 61.4948 120.648C61.6421 120.648 61.7559 120.692 61.8362 120.781C61.9165 120.866 61.9567 120.989 61.9567 121.15C61.9567 121.297 61.9143 121.417 61.8295 121.511C61.7447 121.605 61.6332 121.652 61.4948 121.652ZM65.677 121.578V117.589H64.3651V116.892H67.752V117.589H66.3999V121.578H65.677ZM69.4425 121.645C69.0811 121.645 68.7598 121.569 68.4787 121.417C68.202 121.261 67.9833 121.049 67.8227 120.781C67.6665 120.514 67.5884 120.206 67.5884 119.858C67.5884 119.581 67.6331 119.329 67.7223 119.101C67.8115 118.874 67.9343 118.677 68.0904 118.512C68.2511 118.343 68.4407 118.213 68.6594 118.124C68.8825 118.03 69.1235 117.984 69.3823 117.984C69.6099 117.984 69.8218 118.028 70.0182 118.117C70.2145 118.202 70.3841 118.32 70.5269 118.472C70.6741 118.624 70.7857 118.805 70.8616 119.014C70.9419 119.22 70.9798 119.445 70.9754 119.69L70.9687 119.985H68.0971L67.9432 119.436H70.3729L70.2725 119.55V119.389C70.2591 119.242 70.2101 119.11 70.1253 118.994C70.0405 118.878 69.9334 118.787 69.804 118.72C69.6746 118.653 69.534 118.619 69.3823 118.619C69.1413 118.619 68.9383 118.666 68.7732 118.76C68.6081 118.849 68.4831 118.983 68.3983 119.162C68.3136 119.336 68.2712 119.552 68.2712 119.811C68.2712 120.056 68.3225 120.27 68.4251 120.453C68.5278 120.632 68.6728 120.77 68.8602 120.868C69.0476 120.967 69.264 121.016 69.5095 121.016C69.6835 121.016 69.8441 120.987 69.9914 120.929C70.1431 120.871 70.306 120.766 70.48 120.614L70.8281 121.103C70.721 121.21 70.5894 121.304 70.4332 121.384C70.2815 121.464 70.1186 121.529 69.9445 121.578C69.775 121.623 69.6076 121.645 69.4425 121.645ZM71.7112 121.578V118.064H72.4073V118.814L72.2802 118.894C72.3159 118.778 72.3716 118.666 72.4475 118.559C72.5278 118.452 72.6238 118.358 72.7353 118.278C72.8514 118.193 72.9741 118.126 73.1035 118.077C73.2373 118.028 73.3734 118.004 73.5118 118.004C73.7126 118.004 73.8888 118.037 74.0406 118.104C74.1923 118.171 74.3172 118.271 74.4154 118.405C74.5136 118.539 74.585 118.706 74.6296 118.907L74.5225 118.88L74.5694 118.767C74.6184 118.664 74.6854 118.568 74.7702 118.479C74.8594 118.385 74.9598 118.303 75.0714 118.231C75.1829 118.16 75.3012 118.104 75.4261 118.064C75.5511 118.024 75.6738 118.004 75.7943 118.004C76.0575 118.004 76.274 118.057 76.4435 118.164C76.6176 118.271 76.747 118.434 76.8318 118.653C76.921 118.872 76.9656 119.144 76.9656 119.469V121.578H76.2695V119.51C76.2695 119.309 76.2427 119.146 76.1892 119.021C76.1401 118.892 76.0642 118.796 75.9616 118.733C75.859 118.671 75.7273 118.639 75.5667 118.639C75.4417 118.639 75.3235 118.662 75.2119 118.706C75.1048 118.747 75.0111 118.805 74.9308 118.88C74.8505 118.956 74.788 119.046 74.7434 119.148C74.6988 119.246 74.6765 119.356 74.6765 119.476V121.578H73.9803V119.496C73.9803 119.313 73.9536 119.159 73.9 119.034C73.8465 118.905 73.7684 118.807 73.6657 118.74C73.5631 118.673 73.4382 118.639 73.2909 118.639C73.1659 118.639 73.0499 118.662 72.9428 118.706C72.8357 118.747 72.742 118.805 72.6617 118.88C72.5814 118.952 72.5189 119.039 72.4743 119.142C72.4297 119.24 72.4073 119.347 72.4073 119.463V121.578H71.7112ZM78.0025 121.578V118.064H78.6919V121.578H78.0025ZM78.3371 117.287C78.1899 117.287 78.0761 117.249 77.9958 117.174C77.9154 117.098 77.8753 116.991 77.8753 116.852C77.8753 116.723 77.9154 116.618 77.9958 116.538C78.0805 116.457 78.1943 116.417 78.3371 116.417C78.4844 116.417 78.5982 116.455 78.6785 116.531C78.7588 116.607 78.799 116.714 78.799 116.852C78.799 116.982 78.7566 117.087 78.6718 117.167C78.5915 117.247 78.4799 117.287 78.3371 117.287ZM80.1867 121.578V117.167H80.8761V121.578H80.1867ZM79.4571 118.733V118.064H81.6927V118.733H79.4571ZM83.6399 121.645C83.3499 121.645 83.0843 121.565 82.8434 121.404C82.6069 121.243 82.4172 121.025 82.2744 120.748C82.1316 120.471 82.0602 120.159 82.0602 119.811C82.0602 119.458 82.1316 119.146 82.2744 118.874C82.4217 118.597 82.618 118.381 82.8635 118.224C83.1134 118.068 83.3922 117.99 83.7002 117.99C83.8831 117.99 84.0504 118.017 84.2022 118.071C84.3539 118.124 84.4855 118.2 84.5971 118.298C84.7131 118.392 84.8068 118.501 84.8782 118.626C84.9541 118.751 85.0009 118.885 85.0188 119.028L84.8648 118.974V118.064H85.561V121.578H84.8648V120.741L85.0255 120.694C84.9987 120.815 84.9429 120.933 84.8581 121.049C84.7778 121.161 84.6729 121.261 84.5435 121.35C84.4186 121.44 84.278 121.511 84.1218 121.565C83.9701 121.618 83.8095 121.645 83.6399 121.645ZM83.8206 121.009C84.0304 121.009 84.2156 120.958 84.3762 120.855C84.5368 120.752 84.6618 120.612 84.751 120.433C84.8447 120.25 84.8916 120.043 84.8916 119.811C84.8916 119.583 84.8447 119.38 84.751 119.202C84.6618 119.023 84.5368 118.883 84.3762 118.78C84.2156 118.677 84.0304 118.626 83.8206 118.626C83.6154 118.626 83.4324 118.677 83.2718 118.78C83.1156 118.883 82.9906 119.023 82.8969 119.202C82.8077 119.38 82.7631 119.583 82.7631 119.811C82.7631 120.043 82.8077 120.25 82.8969 120.433C82.9906 120.612 83.1156 120.752 83.2718 120.855C83.4324 120.958 83.6154 121.009 83.8206 121.009ZM87.0342 123.117L87.7437 121.478L87.7504 122.026L85.9967 118.064H86.7999L87.8976 120.648C87.9199 120.692 87.9467 120.761 87.9779 120.855C88.0092 120.944 88.0359 121.034 88.0583 121.123L87.8842 121.163C87.9199 121.069 87.9534 120.976 87.9846 120.882C88.0203 120.788 88.0538 120.694 88.085 120.601L89.002 118.064H89.8187L88.3729 121.578L87.7771 123.117H87.0342ZM91.8487 121.645C91.5051 121.645 91.1972 121.567 90.925 121.411C90.6573 121.25 90.4453 121.034 90.2891 120.761C90.133 120.485 90.0549 120.17 90.0549 119.818C90.0549 119.465 90.133 119.153 90.2891 118.88C90.4453 118.604 90.6573 118.387 90.925 118.231C91.1972 118.071 91.5051 117.99 91.8487 117.99C92.1879 117.99 92.4913 118.071 92.759 118.231C93.0313 118.387 93.2454 118.604 93.4016 118.88C93.5578 119.153 93.6359 119.465 93.6359 119.818C93.6359 120.17 93.5578 120.485 93.4016 120.761C93.2454 121.034 93.0313 121.25 92.759 121.411C92.4913 121.567 92.1879 121.645 91.8487 121.645ZM91.8487 121.016C92.0585 121.016 92.2459 120.964 92.411 120.862C92.5761 120.755 92.7055 120.612 92.7992 120.433C92.8929 120.25 92.9375 120.045 92.9331 119.818C92.9375 119.586 92.8929 119.38 92.7992 119.202C92.7055 119.019 92.5761 118.876 92.411 118.773C92.2459 118.671 92.0585 118.619 91.8487 118.619C91.639 118.619 91.4493 118.673 91.2798 118.78C91.1147 118.883 90.9853 119.025 90.8916 119.208C90.7978 119.387 90.7532 119.59 90.7577 119.818C90.7532 120.045 90.7978 120.25 90.8916 120.433C90.9853 120.612 91.1147 120.755 91.2798 120.862C91.4493 120.964 91.639 121.016 91.8487 121.016Z" fill="white"/>
<path d="M112.947 121.578V116.892H115.785V117.401H113.469V121.069H115.771V121.578H112.947ZM113.188 119.423V118.914H115.41V119.423H113.188ZM119.129 121.578L117.918 120.018L117.857 119.945L116.405 118.084H117.041L118.232 119.617L118.299 119.704L119.758 121.578H119.129ZM116.378 121.578L117.804 119.737L118.105 120.099L116.98 121.578H116.378ZM118.333 119.864L118.045 119.51L119.062 118.084H119.671L118.333 119.864ZM120.355 123.051V118.084H120.857L120.87 118.934L120.776 118.947C120.816 118.778 120.903 118.624 121.037 118.486C121.171 118.343 121.334 118.229 121.526 118.144C121.718 118.059 121.921 118.017 122.135 118.017C122.447 118.017 122.726 118.095 122.972 118.251C123.222 118.407 123.42 118.622 123.567 118.894C123.715 119.166 123.788 119.478 123.788 119.831C123.788 120.179 123.717 120.489 123.574 120.761C123.431 121.034 123.235 121.25 122.985 121.411C122.735 121.567 122.454 121.645 122.142 121.645C121.923 121.645 121.716 121.6 121.519 121.511C121.323 121.422 121.156 121.306 121.017 121.163C120.879 121.016 120.787 120.857 120.743 120.688H120.863V123.051H120.355ZM122.061 121.163C122.298 121.163 122.508 121.105 122.691 120.989C122.874 120.873 123.019 120.714 123.126 120.514C123.233 120.313 123.286 120.085 123.286 119.831C123.286 119.572 123.233 119.342 123.126 119.142C123.019 118.941 122.874 118.782 122.691 118.666C122.508 118.55 122.298 118.492 122.061 118.492C121.825 118.492 121.613 118.55 121.426 118.666C121.243 118.778 121.098 118.934 120.99 119.135C120.883 119.336 120.83 119.565 120.83 119.824C120.83 120.083 120.883 120.313 120.99 120.514C121.098 120.714 121.243 120.873 121.426 120.989C121.613 121.105 121.825 121.163 122.061 121.163ZM124.793 121.645C124.672 121.645 124.579 121.609 124.512 121.538C124.449 121.466 124.418 121.364 124.418 121.23C124.418 121.109 124.452 121.011 124.518 120.935C124.59 120.855 124.681 120.815 124.793 120.815C124.913 120.815 125.005 120.853 125.067 120.929C125.134 121 125.168 121.1 125.168 121.23C125.168 121.355 125.132 121.455 125.061 121.531C124.994 121.607 124.904 121.645 124.793 121.645ZM124.793 118.84C124.672 118.84 124.579 118.805 124.512 118.733C124.449 118.662 124.418 118.559 124.418 118.425C124.418 118.305 124.452 118.207 124.518 118.131C124.59 118.05 124.681 118.01 124.793 118.01C124.913 118.01 125.005 118.048 125.067 118.124C125.134 118.195 125.168 118.296 125.168 118.425C125.168 118.55 125.132 118.651 125.061 118.727C124.994 118.802 124.904 118.84 124.793 118.84Z" fill="#BFBACB"/>
<path d="M129.457 121.645C129.1 121.645 128.792 121.547 128.533 121.35C128.279 121.154 128.083 120.877 127.944 120.52C127.806 120.159 127.737 119.731 127.737 119.235C127.737 118.74 127.806 118.314 127.944 117.957C128.083 117.595 128.279 117.316 128.533 117.12C128.792 116.924 129.1 116.826 129.457 116.826C129.814 116.826 130.122 116.924 130.381 117.12C130.64 117.316 130.838 117.595 130.976 117.957C131.115 118.314 131.184 118.74 131.184 119.235C131.184 119.731 131.115 120.159 130.976 120.52C130.838 120.877 130.64 121.154 130.381 121.35C130.122 121.547 129.814 121.645 129.457 121.645ZM129.457 120.989C129.783 120.989 130.035 120.837 130.213 120.534C130.392 120.226 130.481 119.793 130.481 119.235C130.481 118.677 130.392 118.247 130.213 117.943C130.035 117.635 129.783 117.482 129.457 117.482C129.131 117.482 128.879 117.635 128.701 117.943C128.522 118.247 128.433 118.677 128.433 119.235C128.433 119.793 128.522 120.226 128.701 120.534C128.879 120.837 129.131 120.989 129.457 120.989ZM133.851 121.578V117.803L134.018 117.843L132.479 119.724L132.452 119.644H135.364V120.306H132.003L131.695 119.704L133.991 116.892H134.547V121.578H133.851ZM135.766 122.461L138.524 116.892H139.186L136.435 122.461H135.766ZM139.791 121.578L139.57 121.029L141.003 119.416C141.079 119.336 141.157 119.244 141.237 119.142C141.322 119.034 141.402 118.925 141.478 118.814C141.554 118.702 141.614 118.593 141.659 118.486C141.708 118.374 141.732 118.269 141.732 118.171C141.732 118.028 141.703 117.908 141.645 117.809C141.592 117.707 141.511 117.629 141.404 117.575C141.302 117.522 141.177 117.495 141.029 117.495C140.9 117.495 140.773 117.533 140.648 117.609C140.523 117.685 140.409 117.792 140.307 117.93C140.204 118.068 140.124 118.229 140.066 118.412L139.51 118.064C139.586 117.805 139.7 117.584 139.851 117.401C140.008 117.214 140.193 117.071 140.407 116.973C140.626 116.875 140.862 116.826 141.116 116.826C141.38 116.826 141.614 116.881 141.819 116.993C142.025 117.1 142.185 117.252 142.301 117.448C142.417 117.64 142.475 117.863 142.475 118.117C142.475 118.22 142.464 118.325 142.442 118.432C142.419 118.539 142.384 118.651 142.335 118.767C142.286 118.878 142.223 118.996 142.147 119.121C142.071 119.242 141.98 119.369 141.873 119.503C141.77 119.637 141.652 119.777 141.518 119.925L140.454 121.083L140.32 120.882H142.623V121.578H139.791ZM145.061 121.578V117.803L145.228 117.843L143.689 119.724L143.662 119.644H146.574V120.306H143.214L142.906 119.704L145.202 116.892H145.757V121.578H145.061Z" fill="white"/>
</g>
</g>
<defs>
<filter id="filter0_d_114_36" x="0.379887" y="0.788092" width="254.832" height="157.776" filterUnits="userSpaceOnUse" color-interpolation-filters="sRGB">
<feFlood flood-opacity="0" result="BackgroundImageFix"/>
<feColorMatrix in="SourceAlpha" type="matrix" values="0 0 0 0 0 0 0 0 0 0 0 0 0 0 0 0 0 0 127 0" result="hardAlpha"/>
<feOffset dx="7.64974" dy="1.91243"/>
<feGaussianBlur stdDeviation="9.56217"/>
<feComposite in2="hardAlpha" operator="out"/>
<feColorMatrix type="matrix" values="0 0 0 0 0.0705882 0 0 0 0 0.0470588 0 0 0 0 0.121569 0 0 0 0.7 0"/>
<feBlend mode="normal" in2="BackgroundImageFix" result="effect1_dropShadow_114_36"/>
<feBlend mode="normal" in="SourceGraphic" in2="effect1_dropShadow_114_36" result="shape"/>
</filter>
<linearGradient id="paint0_linear_114_36" x1="265.205" y1="-156.817" x2="164.138" y2="107.644" gradientUnits="userSpaceOnUse">
<stop stop-color="#B79EEF"/>
<stop offset="1" stop-color="#885EE4" stop-opacity="0"/>
</linearGradient>
<linearGradient id="paint1_linear_114_36" x1="153.139" y1="4.57017" x2="101.445" y2="139.154" gradientUnits="userSpaceOnUse">
<stop stop-color="#885EE4"/>
<stop offset="1" stop-color="#703EDF" stop-opacity="0"/>
</linearGradient>
<clipPath id="clip0_114_36">
<rect x="11.8545" y="18" width="216.583" height="119.527" rx="1.91243" fill="white"/>
</clipPath>
<clipPath id="clip1_114_36">
<rect width="26.7741" height="21.0368" fill="white" transform="translate(191.145 30.9089)"/>
</clipPath>
</defs>
</svg>
