<svg width="94" height="17" viewBox="0 0 94 17" fill="none" xmlns="http://www.w3.org/2000/svg">
<g clip-path="url(#clip0_110_192)">
<path d="M18.9717 4.72374C15.5569 4.72374 12.8887 7.33581 12.8887 10.8326C12.8887 14.3294 15.4895 16.9191 18.9717 16.9191C22.4539 16.9191 25.0999 14.2847 25.0999 10.8103C25.0999 7.35817 22.4991 4.72374 18.9717 4.72374ZM18.9947 14.3991C17.0501 14.3991 15.6251 12.8772 15.6251 10.8335C15.6251 8.76652 17.0271 7.24553 18.9717 7.24553C20.9393 7.24553 22.3634 8.78973 22.3634 10.8335C22.3634 12.8772 20.9393 14.3991 18.9947 14.3991ZM25.8456 7.38138H27.542V16.693H30.2554V4.95073H25.8456V7.38138ZM6.05995 7.24467C7.48491 7.24467 8.6155 8.13027 9.0447 9.44748H11.9168C11.3963 6.63164 9.08992 4.72374 6.08299 4.72374C2.66819 4.72374 0 7.33581 0 10.8335C0 14.3311 2.60078 16.92 6.08299 16.92C9.02251 16.92 11.3741 15.0121 11.8946 12.173H9.0447C8.63769 13.4903 7.5071 14.3991 6.08213 14.3991C4.11448 14.3991 2.73559 12.8772 2.73559 10.8335C2.73645 8.76652 4.09315 7.24467 6.05995 7.24467ZM77.4021 9.69768L75.4123 9.40277C74.4626 9.26692 73.7842 8.9488 73.7842 8.19905C73.7842 7.38138 74.6665 6.97298 75.8645 6.97298C77.176 6.97298 78.0131 7.54044 78.194 8.47161H80.8169C80.5225 6.10974 78.7136 4.7246 75.9328 4.7246C73.0607 4.7246 71.1613 6.20088 71.1613 8.29019C71.1613 10.2884 72.4054 11.4474 74.9148 11.8102L76.9047 12.1051C77.8774 12.241 78.4201 12.6279 78.4201 13.3544C78.4201 14.2856 77.4704 14.6716 76.1589 14.6716C74.553 14.6716 73.6486 14.013 73.5129 13.0139H70.8447C71.0939 15.3079 72.8798 16.92 76.1359 16.92C79.0984 16.92 81.0652 15.5572 81.0652 13.2177C81.0652 11.1284 79.6411 10.0382 77.4021 9.69768ZM28.8987 0.113494C27.9037 0.113494 27.1571 0.840024 27.1571 1.83911C27.1571 2.8382 27.9029 3.56473 28.8987 3.56473C29.8936 3.56473 30.6402 2.8382 30.6402 1.83911C30.6402 0.840024 29.8936 0.113494 28.8987 0.113494ZM68.7192 8.97115C68.7192 6.42786 67.1816 4.7246 63.9255 4.7246C60.8503 4.7246 59.1318 6.29201 58.7922 8.69945H61.4835C61.6191 7.76829 62.3427 6.99619 63.8803 6.99619C65.26 6.99619 65.9384 7.60923 65.9384 8.35897C65.9384 9.33571 64.6943 9.58505 63.1567 9.74411C61.0764 9.9711 58.4987 10.6976 58.4987 13.4232C58.4987 15.5357 60.0593 16.8976 62.5466 16.8976C64.4912 16.8976 65.7123 16.08 66.3232 14.7851C66.4137 15.9433 67.2729 16.693 68.4718 16.693H70.0546V14.2632H68.7201V8.97115H68.7192ZM66.051 11.9237C66.051 13.4911 64.6943 14.6493 63.0432 14.6493C62.0253 14.6493 61.166 14.2176 61.166 13.3097C61.166 12.1516 62.5458 11.8334 63.812 11.6976C65.0331 11.5841 65.7114 11.3115 66.051 10.7888V11.9237ZM51.6469 4.72374C50.1315 4.72374 48.8653 5.35999 47.9608 6.427V0H45.2474V16.693H47.9156V15.1488C48.82 16.2614 50.1093 16.92 51.6469 16.92C54.903 16.92 57.3681 14.3311 57.3681 10.8335C57.3681 7.33581 54.8578 4.72374 51.6469 4.72374ZM51.2399 14.3991C49.2953 14.3991 47.8703 12.8772 47.8703 10.8335C47.8703 8.78973 49.3175 7.24553 51.2621 7.24553C53.2297 7.24553 54.6086 8.76738 54.6086 10.8335C54.6086 12.8772 53.1845 14.3991 51.2399 14.3991ZM38.7574 4.72374C36.9937 4.72374 35.84 5.45027 35.1617 6.47257V4.95073H32.4705V16.6922H35.1839V10.3107C35.1839 8.51632 36.3145 7.24467 37.9877 7.24467C39.5484 7.24467 40.5202 8.35725 40.5202 9.97024V16.693H43.2337V9.76647C43.2345 6.81305 41.7199 4.72374 38.7574 4.72374ZM94 10.4474C94 7.08647 91.5579 4.7246 88.2788 4.7246C84.7966 4.7246 82.241 7.35903 82.241 10.8335C82.241 14.4902 84.9775 16.92 88.324 16.92C91.1509 16.92 93.3669 15.2391 93.9317 12.8549H91.1048C90.6978 13.8995 89.7029 14.4902 88.3684 14.4902C86.6269 14.4902 85.3154 13.4 85.0219 11.4921H93.9991V10.4474H94ZM85.1806 9.53862C85.6106 7.90328 86.8316 7.10882 88.2336 7.10882C89.7712 7.10882 90.947 7.99442 91.2183 9.53862H85.1806Z" fill="#0052FF"/>
</g>
<defs>
<clipPath id="clip0_110_192">
<rect width="94" height="16.92" fill="white"/>
</clipPath>
</defs>
</svg>
