<svg width="134" height="21" viewBox="0 0 134 21" fill="none" xmlns="http://www.w3.org/2000/svg">
<g clip-path="url(#clip0_110_175)">
<path d="M43.3559 4.77637H41.0024V16.4913H43.3559V4.77637Z" fill="#2A3362"/>
<path d="M52.4774 12.3366C52.4774 13.9476 51.3957 14.6824 49.9631 14.6824C48.5306 14.6824 47.5658 13.9617 47.5658 12.4214V8.23853H45.2124V12.9443C45.2124 15.2901 46.7326 16.6608 49.2615 16.6608C50.8548 16.6608 51.7319 16.0956 52.3312 15.4596H52.4628L52.6674 16.5054H54.8308V8.23853H52.4774V12.3366Z" fill="#2A3362"/>
<path d="M75.5732 14.8662C73.8484 14.8662 72.8836 14.1031 72.7228 13.0008H80.1924C80.2216 12.7747 80.2509 12.5345 80.2363 12.3084C80.2217 9.34082 77.8974 8.08313 75.4124 8.08313C72.5328 8.08313 70.3547 9.75063 70.3547 12.4356C70.3547 14.9934 72.4304 16.6609 75.5586 16.6609C78.1752 16.6609 79.9147 15.5445 80.2655 13.8205H77.9413C77.6782 14.4988 76.845 14.8662 75.5732 14.8662ZM75.4271 9.87781C76.9327 9.87781 77.7951 10.5279 77.9413 11.4323H72.7813C73.0005 10.5561 73.8776 9.87781 75.4271 9.87781Z" fill="#2A3362"/>
<path d="M84.2562 9.42556H84.11L83.8908 8.23853H81.7566V16.4912H84.11V12.9443C84.11 11.3474 85.0602 10.4571 86.8435 10.4571C87.1651 10.4571 87.4867 10.4854 87.8083 10.5419V8.23853H87.4867C85.8934 8.23853 84.9286 8.56355 84.2562 9.42556Z" fill="#2A3362"/>
<path d="M99.3562 13.9193H99.2246L97.2074 8.76139H94.7808L92.8074 13.9052H92.6466L90.7756 8.23853H88.4368L91.3164 16.4912H93.8745L95.921 11.2344H96.0672L98.0844 16.4912H100.657L103.537 8.23853H101.198L99.3562 13.9193Z" fill="#2A3362"/>
<path d="M112.907 14.0889V11.3333C112.907 9.08645 110.948 8.08313 108.507 8.08313C105.92 8.08313 104.297 9.27016 104.078 11.0507H106.431C106.607 10.2735 107.279 9.84955 108.507 9.84955C109.735 9.84955 110.553 10.3018 110.553 11.2062V11.4181L106.709 11.7008C104.94 11.8279 103.639 12.591 103.639 14.2161C103.639 15.8836 105.13 16.675 107.308 16.675C109.077 16.675 110.144 16.1945 110.802 15.488H110.919C111.284 16.2934 112.044 16.5195 112.848 16.5195H113.842V14.8379H113.623C113.141 14.8096 112.907 14.5835 112.907 14.0889ZM110.553 13.2128C110.553 14.5129 108.945 14.951 107.571 14.951C106.636 14.951 106.022 14.7249 106.022 14.0889C106.022 13.5237 106.548 13.2552 107.337 13.1845L110.568 12.9584L110.553 13.2128Z" fill="#2A3362"/>
<path d="M121.619 8.23853L118.871 14.2161H118.725L115.933 8.23853H113.389L117.365 16.4912H120.186L124.148 8.23853H121.619Z" fill="#2A3362"/>
<path d="M131.676 13.8205C131.383 14.4988 130.55 14.8662 129.293 14.8662C127.568 14.8662 126.603 14.1031 126.443 13.0008H133.912C133.941 12.7747 133.971 12.5345 133.956 12.3084C133.941 9.34082 131.617 8.08313 129.132 8.08313C126.253 8.08313 124.089 9.75063 124.089 12.4356C124.089 14.9934 126.165 16.6609 129.293 16.6609C131.91 16.6609 133.649 15.5445 134 13.8205H131.676ZM129.132 9.87781C130.638 9.87781 131.5 10.5279 131.646 11.4323H126.486C126.706 10.5561 127.568 9.87781 129.132 9.87781Z" fill="#2A3362"/>
<path d="M37.1873 7.6309C37.1873 6.9102 37.7135 6.59931 38.4005 6.59931C38.7221 6.59931 39.0291 6.6417 39.3361 6.72649L39.7307 5.07313C39.1606 4.87529 38.5613 4.77637 37.962 4.77637C36.2225 4.77637 34.8192 5.66664 34.8192 7.51785V8.23855H32.7874V10.0474H34.8192V16.4913H37.1873V10.0474H39.8477V8.23855H37.1873V7.6309Z" fill="#2A3362"/>
<path d="M60.0493 5.92102H57.8567L57.7397 8.25269H55.8833V10.0615H57.6959V14.1313C57.6959 15.5162 58.4268 16.675 60.6194 16.675C61.1895 16.675 61.7596 16.6184 62.3151 16.4913V14.7531C61.9935 14.8238 61.6719 14.8662 61.3357 14.8662C60.1663 14.8662 60.0493 14.2161 60.0493 13.7215V10.0474H62.3882V8.23856H60.0493V5.92102Z" fill="#2A3362"/>
<path d="M67.4458 5.92102H65.2678L65.1509 8.25269H63.2944V10.0615H65.107V14.1313C65.107 15.5162 65.8379 16.675 68.0306 16.675C68.6006 16.675 69.1561 16.6043 69.7116 16.4913V14.7531C69.39 14.8238 69.0684 14.8662 68.7322 14.8662C67.5628 14.8662 67.4458 14.2161 67.4458 13.7215V10.0474H69.7847V8.23856H67.4312V5.92102H67.4458Z" fill="#2A3362"/>
<path d="M0 4.46551C0 3.13717 0.394677 2.00666 1.2425 1.20117L2.70427 2.61431C1.08171 4.18289 2.49962 9.0582 7.13341 13.5378C11.7672 18.0175 16.8103 19.3882 18.4329 17.8196L19.8946 19.2328C17.1465 21.8895 10.9048 19.9959 5.67165 14.951C2.04647 11.4323 0 7.46136 0 4.46551Z" fill="#009A46"/>
<path d="M9.22384 20.4481C7.84979 20.4481 6.68037 20.0665 5.84717 19.2469L7.30893 17.8338C8.93149 19.4024 13.9746 18.0316 18.6084 13.552C23.2422 9.07236 24.6601 4.19704 23.0375 2.62847L24.4993 1.21533C27.2474 3.87202 25.2886 9.90611 20.0701 14.9651C16.4303 18.4697 12.3082 20.4481 9.22384 20.4481Z" fill="#FF5805"/>
<path d="M20.5379 12.9443C19.6462 10.4713 17.8336 7.82877 15.4364 5.51123C10.2032 0.45221 3.9615 -1.42726 1.21338 1.2153C1.02335 1.41314 1.19876 1.87948 1.59344 2.26102C1.98811 2.64257 2.48511 2.81214 2.67514 2.62844C4.2977 1.05986 9.34079 2.4306 13.9746 6.91023C16.1672 9.02993 17.8044 11.404 18.5938 13.5944C19.2808 15.5162 19.2223 17.0707 18.4184 17.8479C18.2283 18.0316 18.3891 18.4979 18.7984 18.8936C19.2077 19.2893 19.6901 19.4447 19.8801 19.261C21.2834 17.8903 21.5173 15.6434 20.5379 12.9443Z" fill="#F5AFCB"/>
<path d="M24.4845 1.21528C23.0812 -0.141332 20.757 -0.367433 17.965 0.565235C15.4069 1.42725 12.6734 3.17953 10.2761 5.49707C5.04298 10.5561 3.09883 16.5902 5.84695 19.2469C6.03698 19.4306 6.53398 19.2751 6.92865 18.8795C7.32333 18.4838 7.49874 18.0174 7.30871 17.8337C5.68615 16.2652 7.10407 11.3898 11.7379 6.91021C13.9305 4.79051 16.3863 3.2078 18.6374 2.4447C20.6254 1.78053 22.2333 1.83706 23.0373 2.61428C23.2273 2.79799 23.7097 2.64254 24.119 2.24687C24.5283 1.85119 24.6891 1.41312 24.4845 1.21528Z" fill="#FF9B00"/>
</g>
<defs>
<clipPath id="clip0_110_175">
<rect width="134" height="20.4481" fill="white"/>
</clipPath>
</defs>
</svg>
