<svg width="256" height="159" viewBox="0 0 256 159" fill="none" xmlns="http://www.w3.org/2000/svg">
<g filter="url(#filter0_d_114_50)">
<g clip-path="url(#clip0_114_50)">
<rect x="12" y="18" width="216.583" height="119.527" rx="1.91243" fill="#160C2D"/>
<rect x="110.241" y="-104.99" width="115.454" height="159.239" rx="0.717163" transform="rotate(39.3142 110.241 -104.99)" fill="url(#paint0_linear_114_50)"/>
<rect width="185.716" height="108.787" transform="translate(149.936 -57.4874) rotate(38.9848)" fill="url(#paint1_linear_114_50)"/>
<path d="M208.715 45.5698L206.336 45.5698L207.823 36.3338L210.202 36.3338L208.715 45.5698Z" fill="white"/>
<path d="M204.334 36.3338L202.065 42.6863L201.796 41.3175L200.996 37.1566C200.996 37.1566 200.898 36.3338 199.867 36.3338L196.116 36.3338L196.072 36.4895C196.95 36.7123 197.789 37.0688 198.561 37.547L200.629 45.5698L203.109 45.5698L206.894 36.3338L204.334 36.3338Z" fill="white"/>
<path d="M223.05 45.5696L225.236 45.5696L223.332 36.3336L221.417 36.3336C221.185 36.3156 220.954 36.3728 220.757 36.4967C220.559 36.6207 220.406 36.8051 220.319 37.023L216.769 45.5696L219.251 45.5696L219.74 44.1983L222.772 44.1983L223.05 45.5696ZM220.432 42.3032L221.684 38.844L222.385 42.3032L220.432 42.3032Z" fill="white"/>
<path d="M216.955 38.555L217.295 36.5783C216.608 36.3271 215.886 36.1887 215.156 36.1682C213.975 36.1682 211.17 36.6895 211.17 39.2271C211.17 41.6139 214.461 41.6435 214.461 42.8963C214.461 44.149 211.51 43.9241 210.534 43.1433L210.18 45.2065C211.031 45.5677 211.947 45.7461 212.869 45.7303C214.493 45.7303 216.943 44.8804 216.943 42.5676C216.943 40.166 213.623 39.9411 213.623 38.8984C213.623 37.8557 215.938 37.9867 216.955 38.555Z" fill="white"/>
<path d="M201.796 41.32L200.996 37.1566C200.996 37.1566 200.898 36.3338 199.867 36.3338L196.116 36.3338L196.072 36.4895C197.363 36.8223 198.569 37.4333 199.605 38.2808C200.588 39.0801 201.344 40.1288 201.796 41.32Z" fill="white"/>
<path d="M23.4746 29.5592V45.7614C23.4746 46.0083 23.6748 46.2084 23.9217 46.2084H27.6544C27.9013 46.2084 28.1015 46.0083 28.1015 45.7614V39.8848C28.1015 39.6844 28.2481 39.5049 28.4408 39.4493C42.3906 35.4255 31.6569 30.9855 24.0198 29.1262C23.7403 29.0581 23.4746 29.2715 23.4746 29.5592Z" fill="#703EDF"/>
<path d="M25.6956 32.5129C28.858 33.291 33.6649 35.2978 27.593 37.1007L25.6956 32.5129Z" fill="white"/>
<path d="M25.6739 79.5482V74.4133L24.4691 74.7671L24.3161 74.3942L25.8747 73.5814H26.3433V79.5482H25.6739ZM28.9537 79.0127C29.298 78.6621 29.6135 78.3434 29.9004 78.0565C30.1873 77.7697 30.4422 77.5051 30.6654 77.2629C30.8949 77.0142 31.0893 76.7816 31.2487 76.5648C31.408 76.3417 31.5291 76.125 31.612 75.9146C31.6949 75.6978 31.7363 75.4715 31.7363 75.2357C31.7363 75.0317 31.7108 74.8596 31.6598 74.7193C31.6088 74.5791 31.5355 74.4675 31.4399 74.3846C31.3507 74.2954 31.2423 74.2317 31.1148 74.1934C30.9937 74.1552 30.863 74.136 30.7227 74.136C30.5697 74.136 30.4231 74.1583 30.2829 74.203C30.1426 74.2476 30.0088 74.3145 29.8813 74.4038C29.7538 74.4866 29.6358 74.5982 29.5275 74.7384C29.4701 74.8277 29.435 74.8978 29.4223 74.9488C29.4095 74.9934 29.4063 75.0412 29.4127 75.0922L29.3745 75.1401L29.298 75.0922L28.8103 74.7098C28.9378 74.4611 29.0972 74.2508 29.2884 74.0787C29.4797 73.9065 29.6964 73.7759 29.9386 73.6866C30.1809 73.5974 30.4391 73.5527 30.7132 73.5527C31.051 73.5527 31.3475 73.6229 31.6025 73.7631C31.8574 73.897 32.0583 74.0914 32.2049 74.3464C32.3515 74.6014 32.4248 74.9042 32.4248 75.2548C32.4248 75.5162 32.377 75.7712 32.2814 76.0198C32.1857 76.262 32.0551 76.5011 31.8893 76.7369C31.7236 76.9728 31.5291 77.2087 31.306 77.4445C31.0829 77.6804 30.8439 77.9258 30.5889 78.1808C30.3402 78.4294 30.0821 78.6908 29.8143 78.9649H32.0328C32.1411 78.9649 32.2176 78.9586 32.2622 78.9458C32.3069 78.9331 32.3483 78.9076 32.3866 78.8693H32.4535V78.9649V79.5482H28.9537V79.0127ZM35.3317 79.6534C35.0193 79.6534 34.7197 79.596 34.4329 79.4813C34.146 79.3665 33.9006 79.1976 33.6966 78.9745L34.1364 78.4486L34.2034 78.3721L34.2512 78.4199C34.2576 78.4709 34.2703 78.5219 34.2894 78.5729C34.3085 78.6175 34.3532 78.6781 34.4233 78.7546C34.5317 78.8502 34.656 78.9299 34.7962 78.9936C34.9365 79.051 35.1054 79.0797 35.303 79.0797C35.558 79.0797 35.7684 79.0287 35.9341 78.9267C36.0999 78.8247 36.2242 78.6844 36.307 78.5059C36.3899 78.3211 36.4314 78.1139 36.4314 77.8844C36.4314 77.6549 36.3899 77.4605 36.307 77.3011C36.2305 77.1417 36.119 77.0174 35.9724 76.9282C35.8257 76.8326 35.6504 76.7688 35.4464 76.7369C35.2425 76.6987 35.013 76.6923 34.758 76.7178V76.1823C35.064 76.1823 35.3126 76.1505 35.5038 76.0867C35.7014 76.023 35.8512 75.9369 35.9532 75.8285C36.0616 75.7202 36.1349 75.5959 36.1732 75.4556C36.2114 75.309 36.2305 75.1592 36.2305 75.0062C36.2305 74.8723 36.2082 74.7512 36.1636 74.6428C36.1254 74.5345 36.068 74.442 35.9915 74.3655C35.9214 74.289 35.8321 74.2317 35.7238 74.1934C35.6218 74.1488 35.507 74.1265 35.3795 74.1265C35.252 74.1265 35.1245 74.1424 34.997 74.1743C34.8759 74.1998 34.7548 74.2444 34.6337 74.3081C34.5189 74.3719 34.4042 74.458 34.2894 74.5663L33.8878 74.1647C34.1046 73.9416 34.3404 73.7854 34.5954 73.6962C34.8568 73.6005 35.115 73.5527 35.37 73.5527C35.6951 73.5527 35.9724 73.6165 36.2019 73.744C36.4314 73.8651 36.6067 74.0372 36.7278 74.2603C36.8553 74.4835 36.919 74.7416 36.919 75.0349C36.919 75.2389 36.884 75.4333 36.8138 75.6182C36.7501 75.7967 36.6481 75.9528 36.5078 76.0867C36.3676 76.2206 36.1923 76.3226 35.9819 76.3927C36.205 76.4628 36.4027 76.568 36.5748 76.7083C36.7469 76.8421 36.8808 77.0079 36.9764 77.2055C37.072 77.4031 37.1198 77.639 37.1198 77.9131C37.1198 78.2255 37.0497 78.5155 36.9095 78.7832C36.7756 79.0446 36.5748 79.255 36.307 79.4143C36.0457 79.5737 35.7206 79.6534 35.3317 79.6534ZM40.8586 79.5482V78.0852H38.2768V77.5975L41.0021 73.5814H41.5662V77.5306H42.3312V78.0948H41.5662V79.5482H40.8586ZM39.0514 77.521H40.8586V74.7863L39.0514 77.521ZM59.4379 79.6438C59.0427 79.6438 58.7048 79.5291 58.4243 79.2996C58.1502 79.0701 57.9399 78.745 57.7932 78.3243C57.653 77.9035 57.5829 77.4063 57.5829 76.8326C57.5829 76.1186 57.6689 75.5162 57.8411 75.0253C58.0195 74.5345 58.265 74.1615 58.5773 73.9065C58.8961 73.6515 59.2658 73.524 59.6866 73.524C59.9352 73.524 60.1678 73.5687 60.3846 73.6579C60.6077 73.7472 60.8117 73.8842 60.9966 74.0691L60.5758 74.5472L60.5089 74.6237L60.4611 74.5759C60.4547 74.5249 60.4388 74.4771 60.4133 74.4325C60.3942 74.3878 60.3432 74.3305 60.2603 74.2603C60.2093 74.2221 60.1551 74.1934 60.0977 74.1743C60.0404 74.1552 59.9798 74.1424 59.916 74.136C59.8523 74.1233 59.7822 74.1169 59.7057 74.1169C59.6037 74.1169 59.4889 74.136 59.3614 74.1743C59.2339 74.2125 59.1064 74.2795 58.9789 74.3751C58.8515 74.4707 58.7303 74.6046 58.6156 74.7767C58.5072 74.9488 58.418 75.1719 58.3478 75.446C58.2841 75.7138 58.249 76.0389 58.2427 76.4214C58.3319 76.2684 58.4435 76.1409 58.5773 76.0389C58.7112 75.9305 58.8578 75.8477 59.0172 75.7903C59.1766 75.7329 59.3391 75.7042 59.5049 75.7042C59.728 75.7042 59.9384 75.752 60.136 75.8477C60.3336 75.9369 60.5057 76.0676 60.6523 76.2397C60.8053 76.4118 60.9233 76.619 61.0061 76.8612C61.0954 77.0971 61.14 77.3617 61.14 77.6549C61.14 78.0501 61.0635 78.3976 60.9105 78.6972C60.7575 78.9968 60.5535 79.2295 60.2985 79.3952C60.0435 79.561 59.7567 79.6438 59.4379 79.6438ZM59.4666 79.051C59.6005 79.051 59.728 79.0223 59.8491 78.9649C59.9766 78.9012 60.0882 78.8119 60.1838 78.6972C60.2794 78.5824 60.3527 78.439 60.4037 78.2669C60.4611 78.0948 60.4898 77.894 60.4898 77.6645C60.4898 77.4222 60.4579 77.215 60.3942 77.0429C60.3368 76.8708 60.2571 76.7306 60.1551 76.6222C60.0531 76.5074 59.9384 76.4246 59.8109 76.3736C59.6897 76.3162 59.5686 76.2875 59.4475 76.2875C59.3328 76.2875 59.218 76.3098 59.1033 76.3545C58.9949 76.3927 58.8897 76.4501 58.7877 76.5266C58.6857 76.5967 58.5901 76.6796 58.5008 76.7752C58.418 76.8708 58.3447 76.976 58.2809 77.0907C58.2554 77.3075 58.2618 77.5306 58.3 77.7601C58.3447 77.9896 58.418 78.2031 58.52 78.4008C58.6283 78.592 58.7622 78.7482 58.9216 78.8693C59.0809 78.9904 59.2626 79.051 59.4666 79.051ZM63.2054 79.5482C63.3903 78.9362 63.5784 78.337 63.7696 77.7505C63.9672 77.1577 64.168 76.568 64.372 75.9815C64.5824 75.395 64.7991 74.8086 65.0222 74.2221H62.4787V73.591H65.8542V73.9639C65.6757 74.4229 65.5004 74.8819 65.3282 75.3409C65.1561 75.7998 64.9904 76.262 64.831 76.7274C64.6716 77.1927 64.5186 77.6613 64.372 78.133C64.2318 78.5984 64.0947 79.0701 63.9608 79.5482H63.2054ZM68.8949 79.6438C68.5188 79.6438 68.1937 79.5737 67.9196 79.4335C67.6518 79.2869 67.4447 79.0924 67.298 78.8502C67.1514 78.6079 67.0781 78.3402 67.0781 78.047C67.0781 77.8175 67.1259 77.5975 67.2215 77.3872C67.3235 77.1768 67.4638 76.9856 67.6423 76.8134C67.8208 76.6349 68.0311 76.4915 68.2734 76.3831C68.0949 76.2875 67.9355 76.1696 67.7953 76.0293C67.6614 75.8827 67.5562 75.7202 67.4797 75.5417C67.4032 75.3632 67.365 75.1783 67.365 74.9871C67.365 74.7129 67.4223 74.4675 67.5371 74.2508C67.6582 74.0277 67.8335 73.8492 68.063 73.7153C68.2989 73.5814 68.5921 73.5145 68.9427 73.5145C69.3125 73.5145 69.6121 73.5782 69.8416 73.7057C70.0711 73.8332 70.24 74.0053 70.3484 74.2221C70.4631 74.4325 70.5205 74.6683 70.5205 74.9297C70.5205 75.0699 70.4982 75.2102 70.4536 75.3504C70.4089 75.4907 70.3452 75.6245 70.2623 75.752C70.1794 75.8732 70.0806 75.9879 69.9659 76.0963C69.8511 76.1983 69.7205 76.2875 69.5738 76.364C69.746 76.4405 69.9021 76.5393 70.0424 76.6604C70.1826 76.7752 70.3037 76.9059 70.4057 77.0525C70.5077 77.1927 70.5842 77.3457 70.6352 77.5115C70.6926 77.6708 70.7213 77.8366 70.7213 78.0087C70.7213 78.3211 70.6448 78.6016 70.4918 78.8502C70.3452 79.0924 70.1348 79.2869 69.8607 79.4335C69.593 79.5737 69.271 79.6438 68.8949 79.6438ZM68.914 79.0414C69.1627 79.0414 69.3698 78.9968 69.5356 78.9076C69.7013 78.8119 69.8256 78.6876 69.9085 78.5346C69.9978 78.3753 70.0424 78.2 70.0424 78.0087C70.0424 77.8621 70.0105 77.7218 69.9468 77.588C69.8894 77.4477 69.8033 77.3202 69.6886 77.2055C69.5802 77.0844 69.4463 76.976 69.287 76.8804C69.134 76.7848 68.9619 76.7083 68.7706 76.6509C68.6304 76.7083 68.4965 76.7848 68.369 76.8804C68.2479 76.9696 68.1427 77.0748 68.0535 77.1959C67.9642 77.3107 67.8941 77.435 67.8431 77.5688C67.7921 77.6963 67.7666 77.8334 67.7666 77.98C67.7666 78.1713 67.8112 78.3466 67.9005 78.5059C67.9897 78.6653 68.1204 78.796 68.2925 78.898C68.4646 78.9936 68.6718 79.0414 68.914 79.0414ZM69.0575 76.125C69.1722 76.0612 69.2774 75.9847 69.373 75.8955C69.475 75.8062 69.5611 75.7106 69.6312 75.6086C69.7077 75.5066 69.7651 75.4014 69.8033 75.2931C69.848 75.1783 69.8703 75.0636 69.8703 74.9488C69.8703 74.7958 69.8352 74.6556 69.7651 74.5281C69.695 74.3942 69.5898 74.2858 69.4495 74.203C69.3093 74.1201 69.134 74.0787 68.9236 74.0787C68.7132 74.0787 68.5411 74.1201 68.4073 74.203C68.2734 74.2795 68.1714 74.3815 68.1013 74.509C68.0375 74.6364 68.0056 74.7735 68.0056 74.9201C68.0056 75.0667 68.0311 75.1974 68.0821 75.3122C68.1395 75.4269 68.216 75.5321 68.3116 75.6277C68.4073 75.717 68.5188 75.803 68.6463 75.8859C68.7738 75.9688 68.9109 76.0485 69.0575 76.125ZM73.4656 79.6438C73.1724 79.6438 72.9078 79.5992 72.672 79.51C72.4361 79.4143 72.2257 79.2773 72.0409 79.0988L72.4521 78.6302L72.519 78.5538L72.5668 78.6016C72.5732 78.6526 72.5891 78.7004 72.6146 78.745C72.6401 78.7832 72.6911 78.8374 72.7676 78.9076C72.8568 78.9649 72.9525 79.0064 73.0545 79.0319C73.1565 79.0574 73.2744 79.0701 73.4083 79.0701C73.6633 79.0701 73.88 78.9968 74.0585 78.8502C74.2434 78.7036 74.3932 78.5059 74.5079 78.2573C74.6227 78.0087 74.7055 77.7314 74.7565 77.4254C74.8139 77.1194 74.8426 76.8071 74.8426 76.4883C74.8426 75.9592 74.8012 75.5225 74.7183 75.1783C74.6354 74.8277 74.5079 74.5663 74.3358 74.3942C74.1637 74.2221 73.9437 74.136 73.676 74.136C73.5166 74.136 73.37 74.1679 73.2361 74.2317C73.1023 74.289 72.9843 74.3783 72.8823 74.4994C72.7867 74.6141 72.7134 74.7544 72.6624 74.9201C72.6114 75.0859 72.5859 75.2739 72.5859 75.4843C72.5859 75.6755 72.6146 75.8477 72.672 76.0007C72.7294 76.1473 72.809 76.2748 72.911 76.3831C73.013 76.4851 73.1278 76.5648 73.2553 76.6222C73.3891 76.6796 73.5294 76.7083 73.676 76.7083C73.8991 76.7083 74.0872 76.6828 74.2402 76.6318C74.3995 76.5808 74.543 76.4979 74.6705 76.3831C74.798 76.2684 74.9191 76.1186 75.0338 75.9337L75.0816 76.6126C74.9605 76.7465 74.833 76.8644 74.6992 76.9664C74.5653 77.0684 74.4123 77.1481 74.2402 77.2055C74.0744 77.2629 73.8832 77.2915 73.6664 77.2915C73.4178 77.2915 73.1883 77.2501 72.978 77.1672C72.7676 77.078 72.5827 76.9537 72.4234 76.7943C72.2704 76.6349 72.1492 76.4469 72.06 76.2301C71.9771 76.007 71.9357 75.7616 71.9357 75.4939C71.9357 75.2134 71.9803 74.9552 72.0696 74.7193C72.1588 74.4835 72.2799 74.2795 72.4329 74.1073C72.5923 73.9288 72.774 73.7918 72.978 73.6962C73.1883 73.6005 73.4115 73.5527 73.6473 73.5527C74.0234 73.5527 74.3485 73.6611 74.6227 73.8778C74.8968 74.0946 75.1071 74.3942 75.2538 74.7767C75.4068 75.1528 75.4833 75.5863 75.4833 76.0771C75.4833 76.8804 75.4004 77.5433 75.2346 78.0661C75.0753 78.5888 74.8458 78.9809 74.5462 79.2422C74.2466 79.4972 73.8864 79.6311 73.4656 79.6438ZM92.6091 79.5482V74.4133L91.4043 74.7671L91.2513 74.3942L92.8099 73.5814H93.2785V79.5482H92.6091ZM95.8889 79.0127C96.2332 78.6621 96.5487 78.3434 96.8356 78.0565C97.1225 77.7697 97.3774 77.5051 97.6006 77.2629C97.8301 77.0142 98.0245 76.7816 98.1839 76.5648C98.3432 76.3417 98.4643 76.125 98.5472 75.9146C98.6301 75.6978 98.6715 75.4715 98.6715 75.2357C98.6715 75.0317 98.646 74.8596 98.595 74.7193C98.544 74.5791 98.4707 74.4675 98.3751 74.3846C98.2859 74.2954 98.1775 74.2317 98.05 74.1934C97.9289 74.1552 97.7982 74.136 97.6579 74.136C97.5049 74.136 97.3583 74.1583 97.2181 74.203C97.0778 74.2476 96.944 74.3145 96.8165 74.4038C96.689 74.4866 96.571 74.5982 96.4627 74.7384C96.4053 74.8277 96.3702 74.8978 96.3575 74.9488C96.3447 74.9934 96.3415 75.0412 96.3479 75.0922L96.3097 75.1401L96.2332 75.0922L95.7455 74.7098C95.873 74.4611 96.0324 74.2508 96.2236 74.0787C96.4149 73.9065 96.6316 73.7759 96.8738 73.6866C97.1161 73.5974 97.3743 73.5527 97.6484 73.5527C97.9862 73.5527 98.2827 73.6229 98.5377 73.7631C98.7926 73.897 98.9935 74.0914 99.1401 74.3464C99.2867 74.6014 99.36 74.9042 99.36 75.2548C99.36 75.5162 99.3122 75.7712 99.2166 76.0198C99.1209 76.262 98.9903 76.5011 98.8245 76.7369C98.6588 76.9728 98.4643 77.2087 98.2412 77.4445C98.0181 77.6804 97.7791 77.9258 97.5241 78.1808C97.2754 78.4294 97.0173 78.6908 96.7495 78.9649H98.968C99.0763 78.9649 99.1528 78.9586 99.1974 78.9458C99.2421 78.9331 99.2835 78.9076 99.3218 78.8693H99.3887V78.9649V79.5482H95.8889V79.0127ZM102.267 79.6534C101.955 79.6534 101.655 79.596 101.368 79.4813C101.081 79.3665 100.836 79.1976 100.632 78.9745L101.072 78.4486L101.139 78.3721L101.186 78.4199C101.193 78.4709 101.205 78.5219 101.225 78.5729C101.244 78.6175 101.288 78.6781 101.358 78.7546C101.467 78.8502 101.591 78.9299 101.731 78.9936C101.872 79.051 102.041 79.0797 102.238 79.0797C102.493 79.0797 102.704 79.0287 102.869 78.9267C103.035 78.8247 103.159 78.6844 103.242 78.5059C103.325 78.3211 103.367 78.1139 103.367 77.8844C103.367 77.6549 103.325 77.4605 103.242 77.3011C103.166 77.1417 103.054 77.0174 102.908 76.9282C102.761 76.8326 102.586 76.7688 102.382 76.7369C102.178 76.6987 101.948 76.6923 101.693 76.7178V76.1823C101.999 76.1823 102.248 76.1505 102.439 76.0867C102.637 76.023 102.786 75.9369 102.888 75.8285C102.997 75.7202 103.07 75.5959 103.108 75.4556C103.147 75.309 103.166 75.1592 103.166 75.0062C103.166 74.8723 103.143 74.7512 103.099 74.6428C103.061 74.5345 103.003 74.442 102.927 74.3655C102.857 74.289 102.767 74.2317 102.659 74.1934C102.557 74.1488 102.442 74.1265 102.315 74.1265C102.187 74.1265 102.06 74.1424 101.932 74.1743C101.811 74.1998 101.69 74.2444 101.569 74.3081C101.454 74.3719 101.339 74.458 101.225 74.5663L100.823 74.1647C101.04 73.9416 101.276 73.7854 101.531 73.6962C101.792 73.6005 102.05 73.5527 102.305 73.5527C102.63 73.5527 102.908 73.6165 103.137 73.744C103.367 73.8651 103.542 74.0372 103.663 74.2603C103.79 74.4835 103.854 74.7416 103.854 75.0349C103.854 75.2389 103.819 75.4333 103.749 75.6182C103.685 75.7967 103.583 75.9528 103.443 76.0867C103.303 76.2206 103.127 76.3226 102.917 76.3927C103.14 76.4628 103.338 76.568 103.51 76.7083C103.682 76.8421 103.816 77.0079 103.912 77.2055C104.007 77.4031 104.055 77.639 104.055 77.9131C104.055 78.2255 103.985 78.5155 103.845 78.7832C103.711 79.0446 103.51 79.255 103.242 79.4143C102.981 79.5737 102.656 79.6534 102.267 79.6534ZM107.794 79.5482V78.0852H105.212V77.5975L107.937 73.5814H108.501V77.5306H109.266V78.0948H108.501V79.5482H107.794ZM105.987 77.521H107.794V74.7863L105.987 77.521ZM121.477 79.6534C121.114 79.6534 120.776 79.5737 120.464 79.4143C120.158 79.255 119.906 79.0287 119.708 78.7354L120.244 78.3338L120.32 78.2764L120.359 78.3243C120.352 78.3753 120.359 78.4231 120.378 78.4677C120.403 78.5123 120.448 78.5761 120.512 78.6589C120.639 78.7992 120.779 78.9044 120.932 78.9745C121.092 79.0382 121.286 79.0701 121.516 79.0701C121.669 79.0701 121.815 79.0382 121.955 78.9745C122.096 78.9044 122.217 78.8087 122.319 78.6876C122.427 78.5665 122.513 78.4167 122.577 78.2382C122.641 78.0597 122.673 77.8621 122.673 77.6453C122.673 77.4222 122.641 77.2246 122.577 77.0525C122.513 76.874 122.424 76.7242 122.309 76.6031C122.201 76.4819 122.073 76.3895 121.927 76.3258C121.78 76.262 121.621 76.2301 121.449 76.2301C121.315 76.2301 121.178 76.2525 121.037 76.2971C120.904 76.3417 120.776 76.4055 120.655 76.4883C120.54 76.5712 120.432 76.6732 120.33 76.7943L119.909 76.6222L120.11 73.591H123.132V74.1934H120.674L120.578 75.905C120.687 75.854 120.792 75.8126 120.894 75.7807C121.002 75.7425 121.111 75.717 121.219 75.7042C121.334 75.6851 121.445 75.6755 121.554 75.6755C121.815 75.6755 122.054 75.7233 122.271 75.819C122.488 75.9082 122.676 76.0421 122.835 76.2206C123.001 76.3927 123.128 76.6031 123.218 76.8517C123.307 77.0939 123.351 77.368 123.351 77.674C123.351 78.082 123.269 78.4358 123.103 78.7354C122.937 79.0287 122.714 79.255 122.434 79.4143C122.153 79.5737 121.834 79.6534 121.477 79.6534ZM126.373 79.6438C125.978 79.6438 125.64 79.5291 125.36 79.2996C125.085 79.0701 124.875 78.745 124.728 78.3243C124.588 77.9035 124.518 77.4063 124.518 76.8326C124.518 76.1186 124.604 75.5162 124.776 75.0253C124.955 74.5345 125.2 74.1615 125.513 73.9065C125.831 73.6515 126.201 73.524 126.622 73.524C126.87 73.524 127.103 73.5687 127.32 73.6579C127.543 73.7472 127.747 73.8842 127.932 74.0691L127.511 74.5472L127.444 74.6237L127.396 74.5759C127.39 74.5249 127.374 74.4771 127.348 74.4325C127.329 74.3878 127.278 74.3305 127.195 74.2603C127.144 74.2221 127.09 74.1934 127.033 74.1743C126.976 74.1552 126.915 74.1424 126.851 74.136C126.787 74.1233 126.717 74.1169 126.641 74.1169C126.539 74.1169 126.424 74.136 126.297 74.1743C126.169 74.2125 126.042 74.2795 125.914 74.3751C125.787 74.4707 125.666 74.6046 125.551 74.7767C125.442 74.9488 125.353 75.1719 125.283 75.446C125.219 75.7138 125.184 76.0389 125.178 76.4214C125.267 76.2684 125.379 76.1409 125.513 76.0389C125.646 75.9305 125.793 75.8477 125.952 75.7903C126.112 75.7329 126.274 75.7042 126.44 75.7042C126.663 75.7042 126.874 75.752 127.071 75.8477C127.269 75.9369 127.441 76.0676 127.588 76.2397C127.741 76.4118 127.858 76.619 127.941 76.8612C128.031 77.0971 128.075 77.3617 128.075 77.6549C128.075 78.0501 127.999 78.3976 127.846 78.6972C127.693 78.9968 127.489 79.2295 127.234 79.3952C126.979 79.561 126.692 79.6438 126.373 79.6438ZM126.402 79.051C126.536 79.051 126.663 79.0223 126.784 78.9649C126.912 78.9012 127.023 78.8119 127.119 78.6972C127.215 78.5824 127.288 78.439 127.339 78.2669C127.396 78.0948 127.425 77.894 127.425 77.6645C127.425 77.4222 127.393 77.215 127.329 77.0429C127.272 76.8708 127.192 76.7306 127.09 76.6222C126.988 76.5074 126.874 76.4246 126.746 76.3736C126.625 76.3162 126.504 76.2875 126.383 76.2875C126.268 76.2875 126.153 76.3098 126.038 76.3545C125.93 76.3927 125.825 76.4501 125.723 76.5266C125.621 76.5967 125.525 76.6796 125.436 76.7752C125.353 76.8708 125.28 76.976 125.216 77.0907C125.191 77.3075 125.197 77.5306 125.235 77.7601C125.28 77.9896 125.353 78.2031 125.455 78.4008C125.564 78.592 125.697 78.7482 125.857 78.8693C126.016 78.9904 126.198 79.051 126.402 79.051ZM130.141 79.5482C130.325 78.9362 130.514 78.337 130.705 77.7505C130.902 77.1577 131.103 76.568 131.307 75.9815C131.518 75.395 131.734 74.8086 131.957 74.2221H129.414V73.591H132.789V73.9639C132.611 74.4229 132.436 74.8819 132.263 75.3409C132.091 75.7998 131.926 76.262 131.766 76.7274C131.607 77.1927 131.454 77.6613 131.307 78.133C131.167 78.5984 131.03 79.0701 130.896 79.5482H130.141ZM135.83 79.6438C135.454 79.6438 135.129 79.5737 134.855 79.4335C134.587 79.2869 134.38 79.0924 134.233 78.8502C134.087 78.6079 134.013 78.3402 134.013 78.047C134.013 77.8175 134.061 77.5975 134.157 77.3872C134.259 77.1768 134.399 76.9856 134.577 76.8134C134.756 76.6349 134.966 76.4915 135.209 76.3831C135.03 76.2875 134.871 76.1696 134.73 76.0293C134.597 75.8827 134.491 75.7202 134.415 75.5417C134.338 75.3632 134.3 75.1783 134.3 74.9871C134.3 74.7129 134.358 74.4675 134.472 74.2508C134.593 74.0277 134.769 73.8492 134.998 73.7153C135.234 73.5814 135.527 73.5145 135.878 73.5145C136.248 73.5145 136.547 73.5782 136.777 73.7057C137.006 73.8332 137.175 74.0053 137.284 74.2221C137.398 74.4325 137.456 74.6683 137.456 74.9297C137.456 75.0699 137.433 75.2102 137.389 75.3504C137.344 75.4907 137.28 75.6245 137.198 75.752C137.115 75.8732 137.016 75.9879 136.901 76.0963C136.786 76.1983 136.656 76.2875 136.509 76.364C136.681 76.4405 136.837 76.5393 136.978 76.6604C137.118 76.7752 137.239 76.9059 137.341 77.0525C137.443 77.1927 137.519 77.3457 137.57 77.5115C137.628 77.6708 137.656 77.8366 137.656 78.0087C137.656 78.3211 137.58 78.6016 137.427 78.8502C137.28 79.0924 137.07 79.2869 136.796 79.4335C136.528 79.5737 136.206 79.6438 135.83 79.6438ZM135.849 79.0414C136.098 79.0414 136.305 78.9968 136.471 78.9076C136.637 78.8119 136.761 78.6876 136.844 78.5346C136.933 78.3753 136.978 78.2 136.978 78.0087C136.978 77.8621 136.946 77.7218 136.882 77.588C136.825 77.4477 136.739 77.3202 136.624 77.2055C136.515 77.0844 136.382 76.976 136.222 76.8804C136.069 76.7848 135.897 76.7083 135.706 76.6509C135.566 76.7083 135.432 76.7848 135.304 76.8804C135.183 76.9696 135.078 77.0748 134.989 77.1959C134.899 77.3107 134.829 77.435 134.778 77.5688C134.727 77.6963 134.702 77.8334 134.702 77.98C134.702 78.1713 134.746 78.3466 134.836 78.5059C134.925 78.6653 135.056 78.796 135.228 78.898C135.4 78.9936 135.607 79.0414 135.849 79.0414ZM135.993 76.125C136.107 76.0612 136.213 75.9847 136.308 75.8955C136.41 75.8062 136.496 75.7106 136.566 75.6086C136.643 75.5066 136.7 75.4014 136.739 75.2931C136.783 75.1783 136.805 75.0636 136.805 74.9488C136.805 74.7958 136.77 74.6556 136.7 74.5281C136.63 74.3942 136.525 74.2858 136.385 74.203C136.244 74.1201 136.069 74.0787 135.859 74.0787C135.648 74.0787 135.476 74.1201 135.342 74.203C135.209 74.2795 135.107 74.3815 135.036 74.509C134.973 74.6364 134.941 74.7735 134.941 74.9201C134.941 75.0667 134.966 75.1974 135.017 75.3122C135.075 75.4269 135.151 75.5321 135.247 75.6277C135.342 75.717 135.454 75.803 135.582 75.8859C135.709 75.9688 135.846 76.0485 135.993 76.125Z" fill="white"/>
<path d="M25.5764 121.645C25.322 121.645 25.0855 121.611 24.8669 121.544C24.6527 121.478 24.4563 121.377 24.2778 121.243C24.1038 121.105 23.9476 120.935 23.8093 120.735L24.3046 120.166C24.5233 120.478 24.733 120.694 24.9338 120.815C25.1346 120.935 25.3733 120.996 25.65 120.996C25.8196 120.996 25.9735 120.969 26.1119 120.915C26.2502 120.862 26.3595 120.788 26.4398 120.694C26.5202 120.601 26.5603 120.494 26.5603 120.373C26.5603 120.293 26.5469 120.217 26.5202 120.146C26.4934 120.074 26.451 120.009 26.393 119.951C26.3394 119.893 26.268 119.84 26.1788 119.791C26.094 119.742 25.9936 119.699 25.8776 119.664C25.7616 119.623 25.6277 119.59 25.476 119.563C25.235 119.514 25.0253 119.449 24.8468 119.369C24.6683 119.289 24.5188 119.188 24.3983 119.068C24.2778 118.947 24.1886 118.811 24.1306 118.66C24.0726 118.503 24.0436 118.329 24.0436 118.137C24.0436 117.95 24.0837 117.776 24.164 117.615C24.2488 117.455 24.3626 117.316 24.5054 117.2C24.6527 117.08 24.8245 116.988 25.0208 116.926C25.2172 116.859 25.4291 116.826 25.6567 116.826C25.8977 116.826 26.1185 116.857 26.3194 116.919C26.5202 116.982 26.6987 117.075 26.8548 117.2C27.011 117.321 27.1404 117.47 27.2431 117.649L26.7344 118.151C26.6451 118.004 26.5447 117.881 26.4331 117.783C26.3216 117.68 26.1989 117.604 26.065 117.555C25.9311 117.502 25.7883 117.475 25.6366 117.475C25.4626 117.475 25.3109 117.502 25.1815 117.555C25.052 117.609 24.9494 117.685 24.8736 117.783C24.8022 117.876 24.7665 117.988 24.7665 118.117C24.7665 118.211 24.7843 118.298 24.82 118.378C24.8557 118.454 24.9093 118.523 24.9807 118.586C25.0565 118.644 25.1569 118.697 25.2819 118.747C25.4068 118.791 25.5563 118.831 25.7303 118.867C25.9758 118.921 26.1944 118.99 26.3863 119.075C26.5782 119.155 26.741 119.251 26.8749 119.362C27.0088 119.474 27.1092 119.599 27.1761 119.737C27.2475 119.876 27.2832 120.025 27.2832 120.186C27.2832 120.485 27.2141 120.743 27.0757 120.962C26.9374 121.181 26.741 121.35 26.4867 121.471C26.2323 121.587 25.9289 121.645 25.5764 121.645ZM28.1335 121.578V116.625H28.8229V118.787L28.7024 118.867C28.747 118.711 28.834 118.568 28.9635 118.439C29.0929 118.305 29.2468 118.198 29.4253 118.117C29.6038 118.033 29.7868 117.99 29.9742 117.99C30.2419 117.99 30.465 118.044 30.6435 118.151C30.822 118.253 30.9559 118.412 31.0451 118.626C31.1344 118.84 31.179 119.11 31.179 119.436V121.578H30.4896V119.483C30.4896 119.282 30.4628 119.117 30.4093 118.988C30.3557 118.854 30.2732 118.758 30.1616 118.7C30.05 118.637 29.9117 118.61 29.7466 118.619C29.6127 118.619 29.49 118.642 29.3785 118.686C29.2669 118.727 29.1687 118.785 29.0839 118.86C29.0036 118.936 28.9389 119.025 28.8898 119.128C28.8452 119.226 28.8229 119.333 28.8229 119.449V121.578H28.4815C28.4235 121.578 28.3655 121.578 28.3075 121.578C28.2495 121.578 28.1915 121.578 28.1335 121.578ZM33.6939 121.645C33.3503 121.645 33.0424 121.567 32.7702 121.411C32.5025 121.25 32.2905 121.034 32.1344 120.761C31.9782 120.485 31.9001 120.17 31.9001 119.818C31.9001 119.465 31.9782 119.153 32.1344 118.88C32.2905 118.604 32.5025 118.387 32.7702 118.231C33.0424 118.071 33.3503 117.99 33.6939 117.99C34.0331 117.99 34.3365 118.071 34.6043 118.231C34.8765 118.387 35.0907 118.604 35.2468 118.88C35.403 119.153 35.4811 119.465 35.4811 119.818C35.4811 120.17 35.403 120.485 35.2468 120.761C35.0907 121.034 34.8765 121.25 34.6043 121.411C34.3365 121.567 34.0331 121.645 33.6939 121.645ZM33.6939 121.016C33.9037 121.016 34.0911 120.964 34.2562 120.862C34.4213 120.755 34.5507 120.612 34.6444 120.433C34.7381 120.25 34.7828 120.045 34.7783 119.818C34.7828 119.586 34.7381 119.38 34.6444 119.202C34.5507 119.019 34.4213 118.876 34.2562 118.773C34.0911 118.671 33.9037 118.619 33.6939 118.619C33.4842 118.619 33.2946 118.673 33.125 118.78C32.9599 118.883 32.8305 119.025 32.7368 119.208C32.6431 119.387 32.5984 119.59 32.6029 119.818C32.5984 120.045 32.6431 120.25 32.7368 120.433C32.8305 120.612 32.9599 120.755 33.125 120.862C33.2946 120.964 33.4842 121.016 33.6939 121.016ZM36.219 121.578V118.064H36.9151V118.814L36.7879 118.894C36.8236 118.778 36.8794 118.666 36.9553 118.559C37.0356 118.452 37.1315 118.358 37.2431 118.278C37.3591 118.193 37.4818 118.126 37.6112 118.077C37.7451 118.028 37.8812 118.004 38.0195 118.004C38.2203 118.004 38.3966 118.037 38.5483 118.104C38.7 118.171 38.825 118.271 38.9231 118.405C39.0213 118.539 39.0927 118.706 39.1373 118.907L39.0302 118.88L39.0771 118.767C39.1262 118.664 39.1931 118.568 39.2779 118.479C39.3672 118.385 39.4676 118.303 39.5791 118.231C39.6907 118.16 39.8089 118.104 39.9339 118.064C40.0588 118.024 40.1815 118.004 40.302 118.004C40.5653 118.004 40.7817 118.057 40.9513 118.164C41.1253 118.271 41.2547 118.434 41.3395 118.653C41.4288 118.872 41.4734 119.144 41.4734 119.469V121.578H40.7773V119.51C40.7773 119.309 40.7505 119.146 40.6969 119.021C40.6478 118.892 40.572 118.796 40.4694 118.733C40.3667 118.671 40.2351 118.639 40.0744 118.639C39.9495 118.639 39.8312 118.662 39.7197 118.706C39.6126 118.747 39.5189 118.805 39.4385 118.88C39.3582 118.956 39.2958 119.046 39.2511 119.148C39.2065 119.246 39.1842 119.356 39.1842 119.476V121.578H38.4881V119.496C38.4881 119.313 38.4613 119.159 38.4077 119.034C38.3542 118.905 38.2761 118.807 38.1735 118.74C38.0708 118.673 37.9459 118.639 37.7986 118.639C37.6737 118.639 37.5577 118.662 37.4506 118.706C37.3435 118.747 37.2498 118.805 37.1694 118.88C37.0891 118.952 37.0267 119.039 36.982 119.142C36.9374 119.24 36.9151 119.347 36.9151 119.463V121.578H36.219ZM43.7485 121.645C43.4584 121.645 43.1929 121.565 42.952 121.404C42.7155 121.243 42.5258 121.025 42.383 120.748C42.2402 120.471 42.1688 120.159 42.1688 119.811C42.1688 119.458 42.2402 119.146 42.383 118.874C42.5303 118.597 42.7266 118.381 42.972 118.224C43.2219 118.068 43.5008 117.99 43.8087 117.99C43.9917 117.99 44.159 118.017 44.3108 118.071C44.4625 118.124 44.5941 118.2 44.7057 118.298C44.8217 118.392 44.9154 118.501 44.9868 118.626C45.0627 118.751 45.1095 118.885 45.1274 119.028L44.9734 118.974V118.064H45.6695V121.578H44.9734V120.741L45.1341 120.694C45.1073 120.815 45.0515 120.933 44.9667 121.049C44.8864 121.161 44.7815 121.261 44.6521 121.35C44.5272 121.44 44.3866 121.511 44.2304 121.565C44.0787 121.618 43.9181 121.645 43.7485 121.645ZM43.9292 121.009C44.139 121.009 44.3241 120.958 44.4848 120.855C44.6454 120.752 44.7704 120.612 44.8596 120.433C44.9533 120.25 45.0002 120.043 45.0002 119.811C45.0002 119.583 44.9533 119.38 44.8596 119.202C44.7704 119.023 44.6454 118.883 44.4848 118.78C44.3241 118.677 44.139 118.626 43.9292 118.626C43.724 118.626 43.541 118.677 43.3804 118.78C43.2242 118.883 43.0992 119.023 43.0055 119.202C42.9163 119.38 42.8716 119.583 42.8716 119.811C42.8716 120.043 42.9163 120.25 43.0055 120.433C43.0992 120.612 43.2242 120.752 43.3804 120.855C43.541 120.958 43.724 121.009 43.9292 121.009ZM48.098 121.645C47.7767 121.645 47.4889 121.567 47.2346 121.411C46.9847 121.25 46.7861 121.034 46.6388 120.761C46.4916 120.485 46.418 120.17 46.418 119.818C46.418 119.465 46.4894 119.153 46.6321 118.88C46.7794 118.604 46.978 118.387 47.2279 118.231C47.4778 118.071 47.7611 117.99 48.0779 117.99C48.252 117.99 48.4193 118.019 48.58 118.077C48.7451 118.131 48.8923 118.207 49.0217 118.305C49.1511 118.399 49.2515 118.503 49.3229 118.619C49.3988 118.731 49.4367 118.845 49.4367 118.961L49.2359 118.974V116.625H49.9254V121.578H49.2359V120.741H49.3698C49.3698 120.848 49.3341 120.955 49.2627 121.063C49.1913 121.165 49.0954 121.261 48.9749 121.35C48.8589 121.44 48.7228 121.511 48.5666 121.565C48.4149 121.618 48.2587 121.645 48.098 121.645ZM48.1917 121.049C48.4015 121.049 48.5867 120.996 48.7473 120.889C48.9079 120.781 49.0329 120.636 49.1221 120.453C49.2158 120.266 49.2627 120.054 49.2627 119.818C49.2627 119.581 49.2158 119.371 49.1221 119.188C49.0329 119.001 48.9079 118.854 48.7473 118.747C48.5867 118.639 48.4015 118.586 48.1917 118.586C47.982 118.586 47.7968 118.639 47.6362 118.747C47.4755 118.854 47.3484 119.001 47.2546 119.188C47.1654 119.371 47.1208 119.581 47.1208 119.818C47.1208 120.054 47.1654 120.266 47.2546 120.453C47.3484 120.636 47.4755 120.781 47.6362 120.889C47.7968 120.996 47.982 121.049 48.1917 121.049ZM52.5143 121.645C52.1529 121.645 51.8316 121.569 51.5505 121.417C51.2738 121.261 51.0552 121.049 50.8945 120.781C50.7383 120.514 50.6602 120.206 50.6602 119.858C50.6602 119.581 50.7049 119.329 50.7941 119.101C50.8834 118.874 51.0061 118.677 51.1622 118.512C51.3229 118.343 51.5125 118.213 51.7312 118.124C51.9543 118.03 52.1953 117.984 52.4541 117.984C52.6817 117.984 52.8936 118.028 53.09 118.117C53.2863 118.202 53.4559 118.32 53.5987 118.472C53.7459 118.624 53.8575 118.805 53.9334 119.014C54.0137 119.22 54.0516 119.445 54.0472 119.69L54.0405 119.985H51.1689L51.015 119.436H53.4447L53.3443 119.55V119.389C53.3309 119.242 53.2819 119.11 53.1971 118.994C53.1123 118.878 53.0052 118.787 52.8758 118.72C52.7464 118.653 52.6058 118.619 52.4541 118.619C52.2131 118.619 52.0101 118.666 51.845 118.76C51.6799 118.849 51.5549 118.983 51.4702 119.162C51.3854 119.336 51.343 119.552 51.343 119.811C51.343 120.056 51.3943 120.27 51.4969 120.453C51.5996 120.632 51.7446 120.77 51.932 120.868C52.1194 120.967 52.3358 121.016 52.5813 121.016C52.7553 121.016 52.916 120.987 53.0632 120.929C53.2149 120.871 53.3778 120.766 53.5518 120.614L53.8999 121.103C53.7928 121.21 53.6612 121.304 53.505 121.384C53.3533 121.464 53.1904 121.529 53.0164 121.578C52.8468 121.623 52.6794 121.645 52.5143 121.645ZM56.3578 121.578L58.1718 116.892H58.9081L60.7086 121.578H59.9389L58.8679 118.753C58.8545 118.722 58.8277 118.646 58.7876 118.526C58.7519 118.405 58.7095 118.271 58.6604 118.124C58.6113 117.977 58.5667 117.843 58.5265 117.722C58.4864 117.598 58.4596 117.517 58.4462 117.482L58.6002 117.475C58.5734 117.551 58.5399 117.647 58.4998 117.763C58.4641 117.879 58.4239 118.001 58.3793 118.131C58.3391 118.26 58.299 118.383 58.2588 118.499C58.2186 118.61 58.1852 118.704 58.1584 118.78L57.0941 121.578H56.3578ZM57.1611 120.413L57.4288 119.717H59.5573L59.8652 120.413H57.1611ZM61.6403 121.652C61.4931 121.652 61.3793 121.609 61.299 121.524C61.2186 121.435 61.1785 121.31 61.1785 121.15C61.1785 121.002 61.2209 120.882 61.3057 120.788C61.3904 120.694 61.502 120.648 61.6403 120.648C61.7876 120.648 61.9014 120.692 61.9817 120.781C62.062 120.866 62.1022 120.989 62.1022 121.15C62.1022 121.297 62.0598 121.417 61.975 121.511C61.8902 121.605 61.7787 121.652 61.6403 121.652ZM65.8225 121.578V117.589H64.5106V116.892H67.8975V117.589H66.5454V121.578H65.8225ZM69.588 121.645C69.2266 121.645 68.9053 121.569 68.6242 121.417C68.3475 121.261 68.1289 121.049 67.9682 120.781C67.812 120.514 67.7339 120.206 67.7339 119.858C67.7339 119.581 67.7786 119.329 67.8678 119.101C67.9571 118.874 68.0798 118.677 68.236 118.512C68.3966 118.343 68.5862 118.213 68.8049 118.124C69.028 118.03 69.269 117.984 69.5278 117.984C69.7554 117.984 69.9673 118.028 70.1637 118.117C70.36 118.202 70.5296 118.32 70.6724 118.472C70.8197 118.624 70.9312 118.805 71.0071 119.014C71.0874 119.22 71.1253 119.445 71.1209 119.69L71.1142 119.985H68.2426L68.0887 119.436H70.5184L70.418 119.55V119.389C70.4047 119.242 70.3556 119.11 70.2708 118.994C70.186 118.878 70.0789 118.787 69.9495 118.72C69.8201 118.653 69.6795 118.619 69.5278 118.619C69.2868 118.619 69.0838 118.666 68.9187 118.76C68.7536 118.849 68.6286 118.983 68.5439 119.162C68.4591 119.336 68.4167 119.552 68.4167 119.811C68.4167 120.056 68.468 120.27 68.5706 120.453C68.6733 120.632 68.8183 120.77 69.0057 120.868C69.1931 120.967 69.4095 121.016 69.655 121.016C69.829 121.016 69.9897 120.987 70.1369 120.929C70.2886 120.871 70.4515 120.766 70.6255 120.614L70.9736 121.103C70.8665 121.21 70.7349 121.304 70.5787 121.384C70.427 121.464 70.2641 121.529 70.0901 121.578C69.9205 121.623 69.7532 121.645 69.588 121.645ZM71.8567 121.578V118.064H72.5529V118.814L72.4257 118.894C72.4614 118.778 72.5172 118.666 72.593 118.559C72.6733 118.452 72.7693 118.358 72.8808 118.278C72.9969 118.193 73.1196 118.126 73.249 118.077C73.3829 118.028 73.519 118.004 73.6573 118.004C73.8581 118.004 74.0344 118.037 74.1861 118.104C74.3378 118.171 74.4627 118.271 74.5609 118.405C74.6591 118.539 74.7305 118.706 74.7751 118.907L74.668 118.88L74.7149 118.767C74.7639 118.664 74.8309 118.568 74.9157 118.479C75.0049 118.385 75.1053 118.303 75.2169 118.231C75.3284 118.16 75.4467 118.104 75.5716 118.064C75.6966 118.024 75.8193 118.004 75.9398 118.004C76.2031 118.004 76.4195 118.057 76.589 118.164C76.7631 118.271 76.8925 118.434 76.9773 118.653C77.0665 118.872 77.1111 119.144 77.1111 119.469V121.578H76.415V119.51C76.415 119.309 76.3882 119.146 76.3347 119.021C76.2856 118.892 76.2097 118.796 76.1071 118.733C76.0045 118.671 75.8728 118.639 75.7122 118.639C75.5873 118.639 75.469 118.662 75.3574 118.706C75.2503 118.747 75.1566 118.805 75.0763 118.88C74.996 118.956 74.9335 119.046 74.8889 119.148C74.8443 119.246 74.822 119.356 74.822 119.476V121.578H74.1258V119.496C74.1258 119.313 74.0991 119.159 74.0455 119.034C73.992 118.905 73.9139 118.807 73.8112 118.74C73.7086 118.673 73.5837 118.639 73.4364 118.639C73.3115 118.639 73.1954 118.662 73.0883 118.706C72.9812 118.747 72.8875 118.805 72.8072 118.88C72.7269 118.952 72.6644 119.039 72.6198 119.142C72.5752 119.24 72.5529 119.347 72.5529 119.463V121.578H71.8567ZM78.148 121.578V118.064H78.8374V121.578H78.148ZM78.4826 117.287C78.3354 117.287 78.2216 117.249 78.1413 117.174C78.0609 117.098 78.0208 116.991 78.0208 116.852C78.0208 116.723 78.0609 116.618 78.1413 116.538C78.226 116.457 78.3398 116.417 78.4826 116.417C78.6299 116.417 78.7437 116.455 78.824 116.531C78.9043 116.607 78.9445 116.714 78.9445 116.852C78.9445 116.982 78.9021 117.087 78.8173 117.167C78.737 117.247 78.6254 117.287 78.4826 117.287ZM80.3322 121.578V117.167H81.0216V121.578H80.3322ZM79.6026 118.733V118.064H81.8382V118.733H79.6026ZM83.7854 121.645C83.4954 121.645 83.2299 121.565 82.9889 121.404C82.7524 121.243 82.5627 121.025 82.4199 120.748C82.2771 120.471 82.2057 120.159 82.2057 119.811C82.2057 119.458 82.2771 119.146 82.4199 118.874C82.5672 118.597 82.7635 118.381 83.009 118.224C83.2589 118.068 83.5378 117.99 83.8457 117.99C84.0286 117.99 84.196 118.017 84.3477 118.071C84.4994 118.124 84.631 118.2 84.7426 118.298C84.8586 118.392 84.9523 118.501 85.0237 118.626C85.0996 118.751 85.1464 118.885 85.1643 119.028L85.0103 118.974V118.064H85.7065V121.578H85.0103V120.741L85.171 120.694C85.1442 120.815 85.0884 120.933 85.0036 121.049C84.9233 121.161 84.8185 121.261 84.689 121.35C84.5641 121.44 84.4235 121.511 84.2674 121.565C84.1156 121.618 83.955 121.645 83.7854 121.645ZM83.9661 121.009C84.1759 121.009 84.3611 120.958 84.5217 120.855C84.6823 120.752 84.8073 120.612 84.8965 120.433C84.9903 120.25 85.0371 120.043 85.0371 119.811C85.0371 119.583 84.9903 119.38 84.8965 119.202C84.8073 119.023 84.6823 118.883 84.5217 118.78C84.3611 118.677 84.1759 118.626 83.9661 118.626C83.7609 118.626 83.5779 118.677 83.4173 118.78C83.2611 118.883 83.1361 119.023 83.0424 119.202C82.9532 119.38 82.9086 119.583 82.9086 119.811C82.9086 120.043 82.9532 120.25 83.0424 120.433C83.1361 120.612 83.2611 120.752 83.4173 120.855C83.5779 120.958 83.7609 121.009 83.9661 121.009ZM87.1797 123.117L87.8892 121.478L87.8959 122.026L86.1422 118.064H86.9454L88.0431 120.648C88.0654 120.692 88.0922 120.761 88.1234 120.855C88.1547 120.944 88.1815 121.034 88.2038 121.123L88.0297 121.163C88.0654 121.069 88.0989 120.976 88.1301 120.882C88.1658 120.788 88.1993 120.694 88.2305 120.601L89.1476 118.064H89.9642L88.5184 121.578L87.9226 123.117H87.1797ZM91.9942 121.645C91.6506 121.645 91.3427 121.567 91.0705 121.411C90.8028 121.25 90.5908 121.034 90.4346 120.761C90.2785 120.485 90.2004 120.17 90.2004 119.818C90.2004 119.465 90.2785 119.153 90.4346 118.88C90.5908 118.604 90.8028 118.387 91.0705 118.231C91.3427 118.071 91.6506 117.99 91.9942 117.99C92.3334 117.99 92.6368 118.071 92.9046 118.231C93.1768 118.387 93.391 118.604 93.5471 118.88C93.7033 119.153 93.7814 119.465 93.7814 119.818C93.7814 120.17 93.7033 120.485 93.5471 120.761C93.391 121.034 93.1768 121.25 92.9046 121.411C92.6368 121.567 92.3334 121.645 91.9942 121.645ZM91.9942 121.016C92.204 121.016 92.3914 120.964 92.5565 120.862C92.7216 120.755 92.851 120.612 92.9447 120.433C93.0384 120.25 93.083 120.045 93.0786 119.818C93.083 119.586 93.0384 119.38 92.9447 119.202C92.851 119.019 92.7216 118.876 92.5565 118.773C92.3914 118.671 92.204 118.619 91.9942 118.619C91.7845 118.619 91.5949 118.673 91.4253 118.78C91.2602 118.883 91.1308 119.025 91.0371 119.208C90.9434 119.387 90.8987 119.59 90.9032 119.818C90.8987 120.045 90.9434 120.25 91.0371 120.433C91.1308 120.612 91.2602 120.755 91.4253 120.862C91.5949 120.964 91.7845 121.016 91.9942 121.016Z" fill="white"/>
<path d="M113.092 121.578V116.892H115.93V117.401H113.614V121.069H115.917V121.578H113.092ZM113.333 119.423V118.914H115.555V119.423H113.333ZM119.275 121.578L118.063 120.018L118.003 119.945L116.55 118.084H117.186L118.378 119.617L118.445 119.704L119.904 121.578H119.275ZM116.524 121.578L117.949 119.737L118.251 120.099L117.126 121.578H116.524ZM118.478 119.864L118.19 119.51L119.208 118.084H119.817L118.478 119.864ZM120.5 123.051V118.084H121.002L121.016 118.934L120.922 118.947C120.962 118.778 121.049 118.624 121.183 118.486C121.317 118.343 121.48 118.229 121.671 118.144C121.863 118.059 122.066 118.017 122.281 118.017C122.593 118.017 122.872 118.095 123.117 118.251C123.367 118.407 123.566 118.622 123.713 118.894C123.86 119.166 123.934 119.478 123.934 119.831C123.934 120.179 123.862 120.489 123.72 120.761C123.577 121.034 123.381 121.25 123.131 121.411C122.881 121.567 122.6 121.645 122.287 121.645C122.069 121.645 121.861 121.6 121.665 121.511C121.468 121.422 121.301 121.306 121.163 121.163C121.024 121.016 120.933 120.857 120.888 120.688H121.009V123.051H120.5ZM122.207 121.163C122.443 121.163 122.653 121.105 122.836 120.989C123.019 120.873 123.164 120.714 123.271 120.514C123.378 120.313 123.432 120.085 123.432 119.831C123.432 119.572 123.378 119.342 123.271 119.142C123.164 118.941 123.019 118.782 122.836 118.666C122.653 118.55 122.443 118.492 122.207 118.492C121.97 118.492 121.758 118.55 121.571 118.666C121.388 118.778 121.243 118.934 121.136 119.135C121.029 119.336 120.975 119.565 120.975 119.824C120.975 120.083 121.029 120.313 121.136 120.514C121.243 120.714 121.388 120.873 121.571 120.989C121.758 121.105 121.97 121.163 122.207 121.163ZM124.938 121.645C124.818 121.645 124.724 121.609 124.657 121.538C124.595 121.466 124.564 121.364 124.564 121.23C124.564 121.109 124.597 121.011 124.664 120.935C124.735 120.855 124.827 120.815 124.938 120.815C125.059 120.815 125.15 120.853 125.213 120.929C125.28 121 125.313 121.1 125.313 121.23C125.313 121.355 125.278 121.455 125.206 121.531C125.139 121.607 125.05 121.645 124.938 121.645ZM124.938 118.84C124.818 118.84 124.724 118.805 124.657 118.733C124.595 118.662 124.564 118.559 124.564 118.425C124.564 118.305 124.597 118.207 124.664 118.131C124.735 118.05 124.827 118.01 124.938 118.01C125.059 118.01 125.15 118.048 125.213 118.124C125.28 118.195 125.313 118.296 125.313 118.425C125.313 118.55 125.278 118.651 125.206 118.727C125.139 118.802 125.05 118.84 124.938 118.84Z" fill="#BFBACB"/>
<path d="M129.603 121.645C129.246 121.645 128.938 121.547 128.679 121.35C128.424 121.154 128.228 120.877 128.09 120.52C127.951 120.159 127.882 119.731 127.882 119.235C127.882 118.74 127.951 118.314 128.09 117.957C128.228 117.595 128.424 117.316 128.679 117.12C128.938 116.924 129.246 116.826 129.603 116.826C129.959 116.826 130.267 116.924 130.526 117.12C130.785 117.316 130.984 117.595 131.122 117.957C131.26 118.314 131.329 118.74 131.329 119.235C131.329 119.731 131.26 120.159 131.122 120.52C130.984 120.877 130.785 121.154 130.526 121.35C130.267 121.547 129.959 121.645 129.603 121.645ZM129.603 120.989C129.928 120.989 130.18 120.837 130.359 120.534C130.537 120.226 130.627 119.793 130.627 119.235C130.627 118.677 130.537 118.247 130.359 117.943C130.18 117.635 129.928 117.482 129.603 117.482C129.277 117.482 129.025 117.635 128.846 117.943C128.668 118.247 128.578 118.677 128.578 119.235C128.578 119.793 128.668 120.226 128.846 120.534C129.025 120.837 129.277 120.989 129.603 120.989ZM133.996 121.578V117.803L134.164 117.843L132.624 119.724L132.597 119.644H135.509V120.306H132.149L131.841 119.704L134.137 116.892H134.692V121.578H133.996ZM135.911 122.461L138.669 116.892H139.332L136.581 122.461H135.911ZM139.937 121.578L139.716 121.029L141.148 119.416C141.224 119.336 141.302 119.244 141.382 119.142C141.467 119.034 141.548 118.925 141.623 118.814C141.699 118.702 141.76 118.593 141.804 118.486C141.853 118.374 141.878 118.269 141.878 118.171C141.878 118.028 141.849 117.908 141.791 117.809C141.737 117.707 141.657 117.629 141.55 117.575C141.447 117.522 141.322 117.495 141.175 117.495C141.046 117.495 140.918 117.533 140.793 117.609C140.669 117.685 140.555 117.792 140.452 117.93C140.349 118.068 140.269 118.229 140.211 118.412L139.656 118.064C139.731 117.805 139.845 117.584 139.997 117.401C140.153 117.214 140.338 117.071 140.552 116.973C140.771 116.875 141.008 116.826 141.262 116.826C141.525 116.826 141.76 116.881 141.965 116.993C142.17 117.1 142.331 117.252 142.447 117.448C142.563 117.64 142.621 117.863 142.621 118.117C142.621 118.22 142.61 118.325 142.587 118.432C142.565 118.539 142.529 118.651 142.48 118.767C142.431 118.878 142.369 118.996 142.293 119.121C142.217 119.242 142.125 119.369 142.018 119.503C141.916 119.637 141.797 119.777 141.664 119.925L140.599 121.083L140.465 120.882H142.768V121.578H139.937ZM145.207 121.578V117.803L145.374 117.843L143.834 119.724L143.808 119.644H146.719V120.306H143.359L143.051 119.704L145.347 116.892H145.903V121.578H145.207Z" fill="white"/>
</g>
</g>
<defs>
<filter id="filter0_d_114_50" x="0.525395" y="0.788092" width="254.832" height="157.776" filterUnits="userSpaceOnUse" color-interpolation-filters="sRGB">
<feFlood flood-opacity="0" result="BackgroundImageFix"/>
<feColorMatrix in="SourceAlpha" type="matrix" values="0 0 0 0 0 0 0 0 0 0 0 0 0 0 0 0 0 0 127 0" result="hardAlpha"/>
<feOffset dx="7.64974" dy="1.91243"/>
<feGaussianBlur stdDeviation="9.56217"/>
<feComposite in2="hardAlpha" operator="out"/>
<feColorMatrix type="matrix" values="0 0 0 0 0.0688876 0 0 0 0 0.046875 0 0 0 0 0.119792 0 0 0 0.7 0"/>
<feBlend mode="normal" in2="BackgroundImageFix" result="effect1_dropShadow_114_50"/>
<feBlend mode="normal" in="SourceGraphic" in2="effect1_dropShadow_114_50" result="shape"/>
</filter>
<linearGradient id="paint0_linear_114_50" x1="265.35" y1="-156.817" x2="164.284" y2="107.644" gradientUnits="userSpaceOnUse">
<stop stop-color="#B79EEF"/>
<stop offset="1" stop-color="#885EE4" stop-opacity="0"/>
</linearGradient>
<linearGradient id="paint1_linear_114_50" x1="153.139" y1="4.57017" x2="101.445" y2="139.154" gradientUnits="userSpaceOnUse">
<stop stop-color="#885EE4"/>
<stop offset="1" stop-color="#703EDF" stop-opacity="0"/>
</linearGradient>
<clipPath id="clip0_114_50">
<rect x="12" y="18" width="216.583" height="119.527" rx="1.91243" fill="white"/>
</clipPath>
</defs>
</svg>
