<svg width="83" height="25" viewBox="0 0 83 25" fill="none" xmlns="http://www.w3.org/2000/svg">
<g clip-path="url(#clip0_110_194)">
<path d="M20.1346 11.0681C16.1826 8.71852 9.66386 8.50249 5.89119 9.64877C5.28534 9.83271 4.64471 9.49033 4.46113 8.88385C4.27756 8.27707 4.61921 7.63614 5.22546 7.45176C9.55624 6.1356 16.7554 6.38989 21.305 9.09358C21.8501 9.41735 22.0289 10.1219 21.7057 10.6667C21.3825 11.2121 20.6781 11.3919 20.1346 11.0681ZM20.0051 14.5481C19.728 14.9986 19.1397 15.1397 18.6904 14.8633C15.3956 12.8358 10.3715 12.2484 6.47354 13.4329C5.96806 13.5858 5.43414 13.3005 5.28065 12.7954C5.12829 12.2893 5.41344 11.7558 5.91802 11.6019C10.3709 10.2492 15.9064 10.9044 19.6907 13.2326C20.14 13.5096 20.2814 14.0988 20.0051 14.5481ZM18.5049 17.8903C18.2848 18.2519 17.8142 18.3653 17.4544 18.1449C14.5753 16.3833 10.9515 15.9854 6.68388 16.9613C6.27257 17.0558 5.86276 16.7977 5.76892 16.3861C5.67474 15.9744 5.93146 15.5642 6.34367 15.4702C11.0138 14.4014 15.02 14.8614 18.2515 16.8383C18.6118 17.0585 18.7253 17.5297 18.5049 17.8903ZM12.8823 0.187105C6.11131 0.187105 0.62207 5.68213 0.62207 12.4607C0.62207 19.2399 6.11131 24.7347 12.8823 24.7347C19.6536 24.7347 25.1425 19.2399 25.1425 12.4607C25.1425 5.68213 19.6536 0.187105 12.8823 0.187105Z" fill="#1ED760"/>
<path d="M33.978 11.5179C31.8612 11.0126 31.4842 10.6578 31.4842 9.91275C31.4842 9.2085 32.1465 8.7348 33.1312 8.7348C34.0858 8.7348 35.0321 9.09462 36.0246 9.83536C36.0546 9.85779 36.0922 9.86673 36.1293 9.86087C36.1663 9.8553 36.199 9.83507 36.2208 9.80429L37.2544 8.34567C37.2968 8.28573 37.2853 8.20277 37.228 8.1569C36.047 7.20818 34.7171 6.74694 33.1626 6.74694C30.8769 6.74694 29.2804 8.11996 29.2804 10.0848C29.2804 12.1918 30.6576 12.9377 33.0375 13.5135C35.0632 13.9806 35.405 14.3719 35.405 15.0716C35.405 15.8467 34.7137 16.3287 33.6012 16.3287C32.3657 16.3287 31.3577 15.912 30.2303 14.9345C30.2023 14.9105 30.164 14.8994 30.1285 14.9014C30.0913 14.9045 30.0572 14.9218 30.0335 14.9503L28.8746 16.3311C28.826 16.3884 28.8321 16.474 28.8882 16.5235C30.2001 17.696 31.8133 18.3153 33.5543 18.3153C36.0173 18.3153 37.6088 16.9679 37.6088 14.8828C37.6088 13.1205 36.5571 12.1459 33.978 11.5179Z" fill="#1ED760"/>
<path d="M44.9691 13.8798C44.9691 15.3679 44.0535 16.4063 42.7425 16.4063C41.4464 16.4063 40.4687 15.3208 40.4687 13.8798C40.4687 12.4391 41.4464 11.3534 42.7425 11.3534C44.0324 11.3534 44.9691 12.4157 44.9691 13.8798ZM43.1812 9.42792C42.1137 9.42792 41.238 9.84885 40.516 10.7114V9.74054C40.516 9.66389 40.4539 9.60145 40.3773 9.60145H38.482C38.4054 9.60145 38.3435 9.66389 38.3435 9.74054V20.5281C38.3435 20.6047 38.4054 20.6671 38.482 20.6671H40.3773C40.4539 20.6671 40.516 20.6047 40.516 20.5281V17.123C41.2382 17.9344 42.114 18.3307 43.1812 18.3307C45.1648 18.3307 47.1729 16.802 47.1729 13.8798C47.1729 10.957 45.1648 9.42792 43.1812 9.42792Z" fill="#1ED760"/>
<path d="M52.3198 16.4218C50.9611 16.4218 49.9367 15.3289 49.9367 13.8798C49.9367 12.4246 50.9256 11.3686 52.2885 11.3686C53.656 11.3686 54.6873 12.4615 54.6873 13.9116C54.6873 15.3666 53.6916 16.4218 52.3198 16.4218ZM52.3198 9.42789C49.7652 9.42789 47.7639 11.3972 47.7639 13.9116C47.7639 16.3987 49.7515 18.3473 52.2885 18.3473C54.8521 18.3473 56.8596 16.3846 56.8596 13.8798C56.8596 11.3834 54.8659 9.42789 52.3198 9.42789Z" fill="#1ED760"/>
<path d="M62.3149 9.60141H60.2291V7.46655C60.2291 7.38989 60.1673 7.3276 60.0908 7.3276H58.1956C58.1189 7.3276 58.0565 7.38989 58.0565 7.46655V9.60141H57.1451C57.0687 9.60141 57.0071 9.66385 57.0071 9.7405V11.3713C57.0071 11.4479 57.0687 11.5103 57.1451 11.5103H58.0565V15.7302C58.0565 17.4355 58.9043 18.3 60.5764 18.3C61.2563 18.3 61.8204 18.1595 62.3519 17.8577C62.3951 17.8336 62.4221 17.787 62.4221 17.7374V16.1844C62.4221 16.1364 62.397 16.0913 62.3562 16.0661C62.3149 16.0402 62.2635 16.0389 62.2212 16.0598C61.8561 16.2437 61.5031 16.3286 61.1085 16.3286C60.5005 16.3286 60.2291 16.0523 60.2291 15.4328V11.5103H62.3149C62.3915 11.5103 62.4531 11.4479 62.4531 11.3713V9.7405C62.4531 9.66385 62.3915 9.60141 62.3149 9.60141Z" fill="#1ED760"/>
<path d="M69.582 9.60981V9.34761C69.582 8.57623 69.8774 8.23225 70.54 8.23225C70.9352 8.23225 71.2526 8.31081 71.608 8.42952C71.6518 8.4433 71.6975 8.43641 71.7331 8.41018C71.7697 8.38394 71.7903 8.34188 71.7903 8.29732V6.69829C71.7903 6.63718 71.7511 6.58309 71.6924 6.56521C71.3168 6.45338 70.8363 6.33848 70.1169 6.33848C68.3661 6.33848 67.4408 7.32545 67.4408 9.19166V9.59325H66.5302C66.4538 9.59325 66.3911 9.65554 66.3911 9.73219V11.3713C66.3911 11.4479 66.4538 11.5103 66.5302 11.5103H67.4408V18.0193C67.4408 18.0959 67.5026 18.1582 67.579 18.1582H69.4744C69.5509 18.1582 69.6133 18.0959 69.6133 18.0193V11.5103H71.383L74.0939 18.0176C73.7862 18.7013 73.4836 18.8373 73.0704 18.8373C72.7365 18.8373 72.3848 18.7374 72.0253 18.5405C71.9915 18.5218 71.9515 18.5188 71.9149 18.5301C71.8787 18.543 71.8483 18.5698 71.8329 18.6051L71.1905 20.0161C71.1599 20.0828 71.1859 20.1611 71.2501 20.1957C71.9207 20.5593 72.5263 20.7145 73.2744 20.7145C74.674 20.7145 75.4476 20.0617 76.1297 18.3058L79.418 9.79918C79.4344 9.75638 79.4296 9.70816 79.4034 9.67005C79.3773 9.63253 79.3353 9.60981 79.2893 9.60981H77.3161C77.2571 9.60981 77.2041 9.64733 77.1848 9.70288L75.1634 15.4831L72.9494 9.69907C72.9292 9.64528 72.8775 9.60981 72.8199 9.60981H69.582Z" fill="#1ED760"/>
<path d="M65.369 9.60143H63.4735C63.3969 9.60143 63.3347 9.66387 63.3347 9.74052V18.0192C63.3347 18.0959 63.3969 18.1582 63.4735 18.1582H65.369C65.4454 18.1582 65.5078 18.0959 65.5078 18.0192V9.74052C65.5078 9.66387 65.4454 9.60143 65.369 9.60143Z" fill="#1ED760"/>
<path d="M64.4308 5.83199C63.68 5.83199 63.0706 6.44068 63.0706 7.19227C63.0706 7.94444 63.68 8.55371 64.4308 8.55371C65.1814 8.55371 65.7901 7.94444 65.7901 7.19227C65.7901 6.44068 65.1814 5.83199 64.4308 5.83199Z" fill="#1ED760"/>
<path d="M81.1139 10.4249H80.7666V10.8683H81.1139C81.2872 10.8683 81.3907 10.7834 81.3907 10.6465C81.3907 10.5023 81.2872 10.4249 81.1139 10.4249ZM81.339 11.0574L81.7163 11.5863H81.3982L81.0585 11.1012H80.7666V11.5863H80.5003V10.1845H81.1247C81.4499 10.1845 81.6639 10.3511 81.6639 10.6316C81.6639 10.8614 81.5313 11.0018 81.339 11.0574ZM81.0433 9.71809C80.36 9.71809 79.8429 10.2617 79.8429 10.9277C79.8429 11.5932 80.3564 12.1296 81.0363 12.1296C81.7194 12.1296 82.2369 11.5863 82.2369 10.92C82.2369 10.2545 81.7232 9.71809 81.0433 9.71809ZM81.0363 12.2632C80.2861 12.2632 79.7024 11.66 79.7024 10.9277C79.7024 10.1952 80.2937 9.58516 81.0433 9.58516C81.7933 9.58516 82.3772 10.1883 82.3772 10.92C82.3772 11.6525 81.7863 12.2632 81.0363 12.2632Z" fill="#1ED760"/>
</g>
<defs>
<clipPath id="clip0_110_194">
<rect width="83" height="24.922" fill="white"/>
</clipPath>
</defs>
</svg>
